<?xml version="1.0" encoding="utf-8"?>
<!-- Generator: Adobe Illustrator 24.1.0, SVG Export Plug-In . SVG Version: 6.00 Build 0)  -->
<svg version="1.1" id="Слой_1" xmlns="http://www.w3.org/2000/svg" xmlns:xlink="http://www.w3.org/1999/xlink" x="0px" y="0px"
	 viewBox="0 0 32 32" style="enable-background:new 0 0 32 32;" xml:space="preserve">
<style type="text/css">
	.st0{fill:#479CFF;}
	.st1{fill:none;stroke:#FFFFFF;stroke-width:2;}
	.st2{fill:#009FE3;}
	.st3{fill:#FFFFFF;}
</style>
<path class="st0" d="M8,0h16c4.4,0,8,3.6,8,8v16c0,4.4-3.6,8-8,8H8c-4.4,0-8-3.6-8-8V8C0,3.6,3.6,0,8,0z"/>
<path class="st1" d="M16.1,8.4L16.1,8.4c1.9,0,3.5,1.5,3.5,3.5v3.7c0,1.9-1.5,3.5-3.5,3.5h0c-1.9,0-3.5-1.5-3.5-3.5v-3.7
	C12.6,9.9,14.2,8.4,16.1,8.4z"/>
<path class="st2" d="M11,14.1h10.1c1.1,0,2,0.9,2,2V21c0,1.1-0.9,2-2,2H11c-1.1,0-2-0.9-2-2v-4.9C9,15,9.9,14.1,11,14.1z"/>
<path class="st3" d="M11,14.1h10.1c1.1,0,2,0.9,2,2V21c0,1.1-0.9,2-2,2H11c-1.1,0-2-0.9-2-2v-4.9C9,15,9.9,14.1,11,14.1z"/>
<path class="st0" d="M17.6,17.8c0,0.8-0.7,1.5-1.5,1.5c-0.8,0-1.5-0.7-1.5-1.5s0.7-1.5,1.5-1.5C16.9,16.3,17.6,17,17.6,17.8z"/>
<path class="st0" d="M15.7,18.5h0.7l0.4,2.6h-1.5L15.7,18.5z"/>
</svg>
