<?xml version="1.0" encoding="utf-8"?>
<!-- Generator: Adobe Illustrator 24.1.0, SVG Export Plug-In . SVG Version: 6.00 Build 0)  -->
<svg version="1.1" id="Слой_1" xmlns="http://www.w3.org/2000/svg" xmlns:xlink="http://www.w3.org/1999/xlink" x="0px" y="0px"
	 viewBox="0 0 114 93" style="enable-background:new 0 0 114 93;" xml:space="preserve">
<style type="text/css">
	.st0{opacity:0.8;}
	.st1{fill:#FFFFFF;}
	.st2{opacity:0.5;}
	.st3{fill:#389CFF;}
	.st4{clip-path:url(#SVGID_2_);fill:none;stroke:#47BBFF;stroke-width:8;stroke-miterlimit:20;}
	.st5{fill:#009FE3;}
	.st6{fill:url(#SVGID_3_);}
	.st7{fill:#02134A;}
	.st8{fill:#FFC01D;}
</style>
<g>
	<g class="st0">
		<path class="st1" d="M91,53.5C91,75.3,73.3,93,51.5,93S12,75.3,12,53.5S29.7,14,51.5,14S91,31.7,91,53.5z"/>
	</g>
	<g>
		<g class="st2">
			<g class="st2">
				<g class="st2">
					<path class="st3" d="M73.6,1.3c0,0.7-0.5,1.3-1.3,1.3S71,2.1,71,1.4c0,0,0,0,0-0.1C71,0.6,71.6,0,72.3,0
						C73,0.1,73.6,0.6,73.6,1.3z"/>
				</g>
				<g class="st2">
					<path class="st3" d="M83.7,1.3c0,0.7-0.5,1.3-1.3,1.3s-1.3-0.5-1.3-1.3c0,0,0,0,0-0.1c0-0.7,0.6-1.3,1.3-1.3
						C83.1,0.1,83.7,0.6,83.7,1.3z"/>
				</g>
				<g class="st2">
					<path class="st3" d="M93.8,1.3c0,0.7-0.5,1.3-1.3,1.3s-1.3-0.5-1.3-1.3c0,0,0,0,0-0.1c0-0.7,0.6-1.3,1.3-1.3
						C93.2,0.1,93.8,0.6,93.8,1.3z"/>
				</g>
				<g class="st2">
					<path class="st3" d="M103.9,1.3c0,0.7-0.5,1.3-1.3,1.3s-1.3-0.5-1.3-1.3c0,0,0,0,0-0.1c0-0.7,0.6-1.3,1.3-1.3
						C103.3,0.1,103.9,0.6,103.9,1.3z"/>
				</g>
				<g class="st2">
					<path class="st3" d="M114,1.3c0,0.7-0.5,1.3-1.3,1.3s-1.3-0.5-1.3-1.3c0,0,0,0,0-0.1c0-0.7,0.6-1.3,1.3-1.3
						C113.4,0.1,114,0.6,114,1.3z"/>
				</g>
			</g>
			<g class="st2">
				<g class="st2">
					<path class="st3" d="M73.6,8c0,0.7-0.5,1.3-1.3,1.3S71,8.8,71,8.1c0,0,0,0,0-0.1c0-0.7,0.6-1.3,1.3-1.3C73,6.8,73.6,7.3,73.6,8
						z"/>
				</g>
				<g class="st2">
					<path class="st3" d="M83.7,8c0,0.7-0.5,1.3-1.3,1.3s-1.3-0.5-1.3-1.3c0,0,0,0,0-0.1c0-0.7,0.6-1.3,1.3-1.3
						C83.1,6.8,83.7,7.3,83.7,8z"/>
				</g>
				<g class="st2">
					<path class="st3" d="M93.8,8c0,0.7-0.5,1.3-1.3,1.3s-1.3-0.5-1.3-1.3c0,0,0,0,0-0.1c0-0.7,0.6-1.3,1.3-1.3
						C93.2,6.8,93.8,7.3,93.8,8z"/>
				</g>
				<g class="st2">
					<path class="st3" d="M103.9,8c0,0.7-0.5,1.3-1.3,1.3s-1.3-0.5-1.3-1.3c0,0,0,0,0-0.1c0-0.7,0.6-1.3,1.3-1.3
						C103.3,6.8,103.9,7.3,103.9,8z"/>
				</g>
				<g class="st2">
					<path class="st3" d="M114,8c0,0.7-0.5,1.3-1.3,1.3s-1.3-0.5-1.3-1.3c0,0,0,0,0-0.1c0-0.7,0.6-1.3,1.3-1.3
						C113.4,6.8,114,7.3,114,8z"/>
				</g>
			</g>
			<g class="st2">
				<g class="st2">
					<path class="st3" d="M73.6,14.8c0,0.7-0.5,1.3-1.3,1.3c-0.7,0-1.3-0.5-1.3-1.3c0,0,0,0,0-0.1c0-0.7,0.6-1.3,1.3-1.3
						C73,13.5,73.6,14.1,73.6,14.8z"/>
				</g>
				<g class="st2">
					<path class="st3" d="M83.7,14.8c0,0.7-0.5,1.3-1.3,1.3c-0.7,0-1.3-0.5-1.3-1.3c0,0,0,0,0-0.1c0-0.7,0.6-1.3,1.3-1.3
						C83.1,13.5,83.7,14.1,83.7,14.8z"/>
				</g>
				<g class="st2">
					<path class="st3" d="M93.8,14.8c0,0.7-0.5,1.3-1.3,1.3c-0.7,0-1.3-0.5-1.3-1.3c0,0,0,0,0-0.1c0-0.7,0.6-1.3,1.3-1.3
						C93.2,13.5,93.8,14.1,93.8,14.8z"/>
				</g>
				<g class="st2">
					<path class="st3" d="M103.9,14.8c0,0.7-0.5,1.3-1.3,1.3c-0.7,0-1.3-0.5-1.3-1.3c0,0,0,0,0-0.1c0-0.7,0.6-1.3,1.3-1.3
						C103.3,13.5,103.9,14.1,103.9,14.8z"/>
				</g>
				<g class="st2">
					<path class="st3" d="M114,14.8c0,0.7-0.5,1.3-1.3,1.3c-0.7,0-1.3-0.5-1.3-1.3c0,0,0,0,0-0.1c0-0.7,0.6-1.3,1.3-1.3
						C113.4,13.5,114,14.1,114,14.8z"/>
				</g>
			</g>
			<g class="st2">
				<g class="st2">
					<path class="st3" d="M73.6,21.5c0,0.7-0.5,1.3-1.3,1.3S71,22.3,71,21.6c0,0,0,0,0-0.1c0-0.7,0.6-1.3,1.3-1.3
						C73,20.2,73.6,20.8,73.6,21.5z"/>
				</g>
				<g class="st2">
					<path class="st3" d="M83.7,21.5c0,0.7-0.5,1.3-1.3,1.3s-1.3-0.5-1.3-1.3c0,0,0,0,0-0.1c0-0.7,0.6-1.3,1.3-1.3
						C83.1,20.2,83.7,20.8,83.7,21.5z"/>
				</g>
				<g class="st2">
					<path class="st3" d="M93.8,21.5c0,0.7-0.5,1.3-1.3,1.3s-1.3-0.5-1.3-1.3c0,0,0,0,0-0.1c0-0.7,0.6-1.3,1.3-1.3
						C93.2,20.2,93.8,20.8,93.8,21.5z"/>
				</g>
				<g class="st2">
					<path class="st3" d="M103.9,21.5c0,0.7-0.5,1.3-1.3,1.3s-1.3-0.5-1.3-1.3c0,0,0,0,0-0.1c0-0.7,0.6-1.3,1.3-1.3
						C103.3,20.2,103.9,20.8,103.9,21.5z"/>
				</g>
				<g class="st2">
					<path class="st3" d="M114,21.5c0,0.7-0.5,1.3-1.3,1.3s-1.3-0.5-1.3-1.3c0,0,0,0,0-0.1c0-0.7,0.6-1.3,1.3-1.3
						C113.4,20.2,114,20.8,114,21.5z"/>
				</g>
			</g>
			<g class="st2">
				<g class="st2">
					<path class="st3" d="M73.6,28.2c0,0.7-0.5,1.3-1.3,1.3S71,29,71,28.3c0,0,0,0,0-0.1c0-0.7,0.6-1.3,1.3-1.3
						C73,27,73.6,27.5,73.6,28.2z"/>
				</g>
				<g class="st2">
					<path class="st3" d="M83.7,28.2c0,0.7-0.5,1.3-1.3,1.3s-1.3-0.5-1.3-1.3c0,0,0,0,0-0.1c0-0.7,0.6-1.3,1.3-1.3
						C83.1,27,83.7,27.5,83.7,28.2z"/>
				</g>
				<g class="st2">
					<path class="st3" d="M93.8,28.2c0,0.7-0.5,1.3-1.3,1.3s-1.3-0.5-1.3-1.3c0,0,0,0,0-0.1c0-0.7,0.6-1.3,1.3-1.3
						C93.2,27,93.8,27.5,93.8,28.2z"/>
				</g>
				<g class="st2">
					<path class="st3" d="M103.9,28.2c0,0.7-0.5,1.3-1.3,1.3s-1.3-0.5-1.3-1.3c0,0,0,0,0-0.1c0-0.7,0.6-1.3,1.3-1.3
						C103.3,27,103.9,27.5,103.9,28.2z"/>
				</g>
				<g class="st2">
					<path class="st3" d="M114,28.2c0,0.7-0.5,1.3-1.3,1.3s-1.3-0.5-1.3-1.3c0,0,0,0,0-0.1c0-0.7,0.6-1.3,1.3-1.3
						C113.4,27,114,27.5,114,28.2z"/>
				</g>
			</g>
			<g class="st2">
				<g class="st2">
					<path class="st3" d="M73.6,35c0,0.7-0.5,1.3-1.3,1.3S71,35.8,71,35c0,0,0,0,0-0.1c0-0.7,0.6-1.3,1.3-1.3
						C73,33.7,73.6,34.3,73.6,35z"/>
				</g>
				<g class="st2">
					<path class="st3" d="M83.7,35c0,0.7-0.5,1.3-1.3,1.3s-1.3-0.5-1.3-1.3c0,0,0,0,0-0.1c0-0.7,0.6-1.3,1.3-1.3
						C83.1,33.7,83.7,34.3,83.7,35z"/>
				</g>
				<g class="st2">
					<path class="st3" d="M93.8,35c0,0.7-0.5,1.3-1.3,1.3s-1.3-0.5-1.3-1.3c0,0,0,0,0-0.1c0-0.7,0.6-1.3,1.3-1.3
						C93.2,33.7,93.8,34.3,93.8,35z"/>
				</g>
				<g class="st2">
					<path class="st3" d="M103.9,35c0,0.7-0.5,1.3-1.3,1.3s-1.3-0.5-1.3-1.3c0,0,0,0,0-0.1c0-0.7,0.6-1.3,1.3-1.3
						C103.3,33.7,103.9,34.3,103.9,35z"/>
				</g>
				<g class="st2">
					<path class="st3" d="M114,35c0,0.7-0.5,1.3-1.3,1.3s-1.3-0.5-1.3-1.3c0,0,0,0,0-0.1c0-0.7,0.6-1.3,1.3-1.3
						C113.4,33.7,114,34.3,114,35z"/>
				</g>
			</g>
			<g class="st2">
				<g class="st2">
					<path class="st3" d="M73.6,41.7c0,0.7-0.5,1.3-1.3,1.3S71,42.5,71,41.8c0,0,0,0,0-0.1c0-0.7,0.6-1.3,1.3-1.3
						C73,40.4,73.6,41,73.6,41.7z"/>
				</g>
				<g class="st2">
					<path class="st3" d="M83.7,41.7c0,0.7-0.5,1.3-1.3,1.3s-1.3-0.5-1.3-1.3c0,0,0,0,0-0.1c0-0.7,0.6-1.3,1.3-1.3
						C83.1,40.4,83.7,41,83.7,41.7z"/>
				</g>
				<g class="st2">
					<path class="st3" d="M93.8,41.7c0,0.7-0.5,1.3-1.3,1.3s-1.3-0.5-1.3-1.3c0,0,0,0,0-0.1c0-0.7,0.6-1.3,1.3-1.3
						C93.2,40.4,93.8,41,93.8,41.7z"/>
				</g>
				<g class="st2">
					<path class="st3" d="M103.9,41.7c0,0.7-0.5,1.3-1.3,1.3s-1.3-0.5-1.3-1.3c0,0,0,0,0-0.1c0-0.7,0.6-1.3,1.3-1.3
						C103.3,40.4,103.9,41,103.9,41.7z"/>
				</g>
				<g class="st2">
					<path class="st3" d="M114,41.7c0,0.7-0.5,1.3-1.3,1.3s-1.3-0.5-1.3-1.3c0,0,0,0,0-0.1c0-0.7,0.6-1.3,1.3-1.3
						C113.4,40.4,114,41,114,41.7z"/>
				</g>
			</g>
		</g>
		<g>
			<g>
				<g>
					<g>
						<defs>
							<path id="SVGID_1_" d="M50.9,25.5C50.9,15.8,58.7,8,68.4,8c9.6,0,17.5,7.8,17.5,17.5V40c0,9.6-7.8,17.5-17.5,17.5
								S50.9,49.6,50.9,40L50.9,25.5z"/>
						</defs>
						<clipPath id="SVGID_2_">
							<use xlink:href="#SVGID_1_"  style="overflow:visible;"/>
						</clipPath>
						<path class="st4" d="M50.9,25.5C50.9,15.8,58.7,8,68.4,8l0,0c9.6,0,17.5,7.8,17.5,17.5V40c0,9.6-7.8,17.5-17.5,17.5l0,0
							c-9.6,0-17.5-7.8-17.5-17.5L50.9,25.5z"/>
					</g>
				</g>
				<g>
					<path class="st5" d="M40.7,38.2c0-2.2,1.8-4,4-4H92c2.2,0,4,1.8,4,4v26.9c0,2.2-1.8,4-4,4H44.7c-2.2,0-4-1.8-4-4V38.2z"/>
					
						<linearGradient id="SVGID_3_" gradientUnits="userSpaceOnUse" x1="68.3665" y1="59.82" x2="68.3665" y2="24.91" gradientTransform="matrix(1 0 0 -1 0 94)">
						<stop  offset="0" style="stop-color:#48BDFF"/>
						<stop  offset="1" style="stop-color:#2B7FFF"/>
					</linearGradient>
					<path class="st6" d="M40.7,38.2c0-2.2,1.8-4,4-4H92c2.2,0,4,1.8,4,4v26.9c0,2.2-1.8,4-4,4H44.7c-2.2,0-4-1.8-4-4V38.2z"/>
				</g>
				<g>
					<g>
						<path class="st7" d="M74.2,48.7c0,3.2-2.6,5.8-5.8,5.8s-5.8-2.6-5.8-5.8s2.6-5.8,5.8-5.8S74.2,45.5,74.2,48.7z"/>
					</g>
					<g>
						<path class="st7" d="M66.9,51.6h2.9l1.5,10.2h-5.8L66.9,51.6z"/>
					</g>
				</g>
			</g>
			<g>
				<g>
					<path class="st8" d="M13.1,52.4c0,2-1.6,3.6-3.6,3.6s-3.6-1.6-3.6-3.6V42.2c0-2,1.6-3.6,3.6-3.6s3.6,1.6,3.6,3.6L13.1,52.4z
						 M9.5,32.7C4.2,32.7,0,37,0,42.2c0,0,0,0,0,0v10.2c0,5.2,4.2,9.5,9.5,9.5s9.5-4.2,9.5-9.5c0,0,0,0,0,0V42.2
						C18.9,37,14.7,32.7,9.5,32.7L9.5,32.7z"/>
				</g>
				<g>
					<path class="st8" d="M53.8,50.2H17.5v-5.8h36.4V50.2z"/>
				</g>
				<g transform="rotate(90 51 54.5)">
					<path class="st8" d="M46.5,51.6h8.7v5.8h-8.7V51.6z"/>
				</g>
			</g>
		</g>
	</g>
</g>
</svg>
