<?xml version="1.0" encoding="utf-8"?>
<!-- Generator: Adobe Illustrator 24.1.0, SVG Export Plug-In . SVG Version: 6.00 Build 0)  -->
<svg version="1.1" id="Слой_1" xmlns="http://www.w3.org/2000/svg" xmlns:xlink="http://www.w3.org/1999/xlink" x="0px" y="0px"
	 viewBox="0 0 16 11" style="enable-background:new 0 0 16 11;" xml:space="preserve">
<style type="text/css">
	.st0{fill:#46BAFF;}
</style>
<path class="st0" d="M16,1.2c0,2.7,0,5.4,0,8.1c-0.1,0.4-0.3,0.7-0.7,0.9c-4.9,0-9.7,0-14.6,0c-0.1-0.1-0.3-0.1-0.3-0.2
	C0.2,9.8,0.1,9.6,0,9.4C0,6.7,0,4,0,1.2c0,0,0,0,0.1,0c2.6,2,5.2,4,7.8,6C8,7.4,8,7.4,8.1,7.3c1-0.8,2-1.6,3-2.3
	C12.8,3.7,14.4,2.5,16,1.2z"/>
<path class="st0" d="M0.6,0c4.9,0,9.9,0,14.8,0c0,0,0,0,0.1,0c0.2,0.1,0.2,0.1,0,0.3c-0.2,0.2-0.4,0.3-0.6,0.5
	C13,2.2,11.1,3.7,9.2,5.1C8.8,5.4,8.4,5.7,8,6c0,0-0.1-0.1-0.1-0.1C5.6,4.2,3.3,2.4,1,0.7C0.8,0.5,0.7,0.4,0.5,0.2
	C0.4,0.2,0.4,0.1,0.6,0C0.5,0,0.6,0,0.6,0z"/>
</svg>
