<?xml version="1.0" encoding="utf-8"?>
<!-- Generator: Adobe Illustrator 24.1.0, SVG Export Plug-In . SVG Version: 6.00 Build 0)  -->
<svg version="1.1" id="Слой_1" xmlns="http://www.w3.org/2000/svg" xmlns:xlink="http://www.w3.org/1999/xlink" x="0px" y="0px"
	 viewBox="0 0 84 82" style="enable-background:new 0 0 84 82;" xml:space="preserve">
<style type="text/css">
	.st0{opacity:0.4;}
	.st1{fill:#7CB937;}
	.st2{fill:#FDB1B8;}
	.st3{fill-rule:evenodd;clip-rule:evenodd;fill:#D9EDFF;}
	.st4{fill-rule:evenodd;clip-rule:evenodd;fill:#F2C94C;}
	.st5{fill-rule:evenodd;clip-rule:evenodd;fill:url(#SVGID_1_);}
	.st6{fill:#009FE3;}
	.st7{fill:url(#SVGID_2_);}
	.st8{fill:#1461C0;}
	.st9{fill:url(#SVGID_3_);}
	.st10{fill-rule:evenodd;clip-rule:evenodd;fill:#FDB1B8;}
	.st11{fill-rule:evenodd;clip-rule:evenodd;fill:url(#SVGID_4_);}
	.st12{fill:#F2C94C;}
	.st13{fill:#D9EDFF;}
</style>
<g class="st0">
	<circle class="st1" cx="1" cy="17" r="1"/>
	<circle class="st1" cx="8.5" cy="17" r="1"/>
	<circle class="st1" cx="16.1" cy="17" r="1"/>
	<circle class="st1" cx="23.6" cy="17" r="1"/>
	<circle class="st1" cx="31.2" cy="17" r="1"/>
	<circle class="st1" cx="1" cy="22" r="1"/>
	<circle class="st1" cx="8.5" cy="22" r="1"/>
	<circle class="st1" cx="16.1" cy="22" r="1"/>
	<circle class="st1" cx="23.6" cy="22" r="1"/>
	<circle class="st1" cx="31.2" cy="22" r="1"/>
	<circle class="st1" cx="1" cy="27.1" r="1"/>
	<circle class="st1" cx="8.5" cy="27.1" r="1"/>
	<circle class="st1" cx="16.1" cy="27.1" r="1"/>
	<circle class="st1" cx="23.6" cy="27.1" r="1"/>
	<circle class="st1" cx="31.2" cy="27.1" r="1"/>
	<circle class="st1" cx="1" cy="32.1" r="1"/>
	<circle class="st1" cx="8.5" cy="32.1" r="1"/>
	<circle class="st1" cx="16.1" cy="32.1" r="1"/>
	<circle class="st1" cx="23.6" cy="32.1" r="1"/>
	<circle class="st1" cx="31.2" cy="32.1" r="1"/>
	<circle class="st1" cx="1" cy="37.1" r="1"/>
	<circle class="st1" cx="8.5" cy="37.1" r="1"/>
	<circle class="st1" cx="16.1" cy="37.1" r="1"/>
	<circle class="st1" cx="23.6" cy="37.1" r="1"/>
	<circle class="st1" cx="31.2" cy="37.1" r="1"/>
	<circle class="st1" cx="1" cy="42.2" r="1"/>
	<circle class="st1" cx="8.5" cy="42.2" r="1"/>
	<circle class="st1" cx="16.1" cy="42.2" r="1"/>
	<circle class="st1" cx="23.6" cy="42.2" r="1"/>
	<circle class="st1" cx="31.2" cy="42.2" r="1"/>
	<circle class="st1" cx="1" cy="47.2" r="1"/>
	<circle class="st1" cx="8.5" cy="47.2" r="1"/>
	<circle class="st1" cx="16.1" cy="47.2" r="1"/>
	<circle class="st1" cx="23.6" cy="47.2" r="1"/>
	<circle class="st1" cx="31.2" cy="47.2" r="1"/>
</g>
<path class="st2" d="M70.8,53.5c0,1.4-1.1,2.5-2.5,2.5s-2.5-1.1-2.5-2.5s1.1-2.5,2.5-2.5S70.8,52.1,70.8,53.5z"/>
<path class="st2" d="M83.8,28.5c0,1.4-1.1,2.5-2.5,2.5s-2.5-1.1-2.5-2.5s1.1-2.5,2.5-2.5S83.8,27.1,83.8,28.5z"/>
<path class="st3" d="M70.3,24c0.8,0,1.5-0.7,1.5-1.5S71.1,21,70.3,21c-0.8,0-1.5,0.7-1.5,1.5S69.5,24,70.3,24z M70.3,27
	c2.5,0,4.5-2,4.5-4.5s-2-4.5-4.5-4.5s-4.5,2-4.5,4.5S67.8,27,70.3,27z"/>
<path class="st4" d="M39.8,9.2C41.6,9.2,43,7.8,43,6s-1.4-3.2-3.2-3.2S36.6,4.2,36.6,6S38,9.2,39.8,9.2z M39.8,12c3.3,0,6-2.7,6-6
	s-2.7-6-6-6s-6,2.7-6,6S36.5,12,39.8,12z"/>
<linearGradient id="SVGID_1_" gradientUnits="userSpaceOnUse" x1="35.6726" y1="83.2297" x2="40.9667" y2="76.5238" gradientTransform="matrix(1 0 0 -1 0 84)">
	<stop  offset="0" style="stop-color:#FFA944"/>
	<stop  offset="1" style="stop-color:#FFCF23;stop-opacity:0"/>
</linearGradient>
<path class="st5" d="M39.8,9.2C41.6,9.2,43,7.8,43,6s-1.4-3.2-3.2-3.2S36.6,4.2,36.6,6S38,9.2,39.8,9.2z M39.8,12c3.3,0,6-2.7,6-6
	s-2.7-6-6-6s-6,2.7-6,6S36.5,12,39.8,12z"/>
<path class="st6" d="M31.7,31.3l21.6,25.8L12.8,69.1L31.7,31.3z"/>
<linearGradient id="SVGID_2_" gradientUnits="userSpaceOnUse" x1="16.8665" y1="40.2433" x2="38.4425" y2="14.4225" gradientTransform="matrix(1 0 0 -1 0 84)">
	<stop  offset="0" style="stop-color:#48BDFF"/>
	<stop  offset="1" style="stop-color:#2B7FFF"/>
</linearGradient>
<path class="st7" d="M31.7,31.3l21.6,25.8L12.8,69.1L31.7,31.3z"/>
<path class="st8" d="M47.2,40.3c6,7.1,8.9,14.5,6.5,16.5c-2.4,2-9.1-2.2-15.1-9.3c-6-7.1-8.9-14.5-6.5-16.5
	C34.5,29,41.3,33.2,47.2,40.3z"/>
<linearGradient id="SVGID_3_" gradientUnits="userSpaceOnUse" x1="51.3685" y1="54.635" x2="35.7028" y2="27.6755" gradientTransform="matrix(1 0 0 -1 0 84)">
	<stop  offset="0" style="stop-color:#3596FF"/>
	<stop  offset="1" style="stop-color:#1815B0"/>
</linearGradient>
<path class="st9" d="M47.2,40.3c6,7.1,8.9,14.5,6.5,16.5c-2.4,2-9.1-2.2-15.1-9.3c-6-7.1-8.9-14.5-6.5-16.5
	C34.5,29,41.3,33.2,47.2,40.3z"/>
<path class="st10" d="M50.9,17.9c0.5-0.9,1.5-1.3,2.4-0.8c0.5,0.3,1.1,0.6,1.5,1c0.4,0.5,0.8,1.1,0.8,1.9c0,0.8-0.3,1.4-0.6,1.8
	c-0.3,0.4-0.7,0.8-1.1,1.2c-0.9,0.8-1.9,1-2.5,1.2c-0.1,0-0.3,0.1-0.4,0.1c-0.4,0.1-0.6,0.1-0.8,0.2c0.1,0.1,0.1,0.3,0.2,0.5
	c0,0,0,0.1,0.1,0.1c0.2,0.4,0.6,1.2,0.7,1.9c0.1,0.5,0,1.1-0.3,1.7c-0.3,0.6-0.8,1-1.3,1.3c-0.2,0.1-0.3,0.2-0.5,0.3
	c-0.1,0.1-0.3,0.2-0.6,0.3c-0.4,0.2-1,0.5-1.6,0.7c-0.4,0.1-0.9,0.2-1.2,0.2c-0.1,0-0.2,0-0.2,0c-0.2,0-0.4,0.1-0.5,0.1
	c-0.1,0-0.2,0.1-0.2,0.1c0,0,0,0,0,0c-0.2,0.1-0.3,0.1-0.3,0.2c0,0,0,0,0,0.1c0,0.2,0.1,0.4,0.3,0.7c0.3,0.6,0.8,1.6,1,2.6
	c0.2,1.1,0.2,2.5-1,3.7c-1.7,1.7-4.6,1.9-6.3-0.1c-0.7-0.8-0.6-1.9,0.2-2.6c0.8-0.7,1.9-0.6,2.6,0.2c0.1,0.1,0.2,0.1,0.4,0.1
	c0.2,0,0.4-0.1,0.5-0.2c0,0,0,0,0-0.1c0-0.1,0-0.2,0-0.4c-0.1-0.5-0.3-1-0.6-1.6c-0.4-0.8-0.9-1.9-0.7-3.1c0.2-1.4,1.2-2.2,2.3-2.8
	c0.6-0.3,1.3-0.4,1.7-0.5c0.2,0,0.3,0,0.4-0.1c0.3,0,0.5-0.1,0.7-0.1c0.2,0,0.4-0.1,0.7-0.3c0.1,0,0.2-0.1,0.3-0.2
	c0.1,0,0.2-0.1,0.3-0.2c0-0.1-0.1-0.2-0.2-0.4c0,0,0-0.1-0.1-0.1c0,0,0,0,0,0c-0.2-0.5-0.6-1.3-0.6-2.2c0-0.5,0.1-1.1,0.4-1.7
	c0.3-0.6,0.8-0.9,1.4-1.2c0.7-0.4,1.5-0.6,2.1-0.7c0.1,0,0.2,0,0.2-0.1c0.5-0.1,0.8-0.2,1-0.4C50.7,19.8,50.5,18.8,50.9,17.9z
	 M52.1,19.7C52.1,19.7,52.1,19.7,52.1,19.7C52.1,19.7,52.1,19.7,52.1,19.7z"/>
<path class="st4" d="M60.7,43.4c-1,0.1-1.9-0.7-2-1.7c-0.1-0.9,0.2-1.7,0.7-2.4c0.5-0.7,1.2-1,1.8-1.3c1.2-0.4,2.7-0.3,3.8,0
	c1.1,0.4,1.7,0.9,2.1,1.4c0.1,0.1,0.1,0.1,0.2,0.2c0.2,0.2,0.3,0.4,0.5,0.5c0.1-0.1,0.1-0.2,0.2-0.3c0,0,0.1-0.1,0.1-0.2
	c0.2-0.3,0.6-0.9,1.1-1.3c0.6-0.6,1.6-1.1,2.9-0.8c1.4,0.4,2.3,1.2,2.9,1.8c0.3,0.3,0.6,0.6,0.8,0.9c0.1,0.1,0.1,0.1,0.2,0.2
	c0.1,0.2,0.2,0.3,0.3,0.4c0.1,0.1,0.1,0.1,0.1,0.1c0,0,0,0,0,0c0,0,0.3,0.1,1-0.2c0.7-0.3,1.2-0.8,1.4-1.2c0.5-0.9,1.6-1.1,2.5-0.6
	c0.9,0.5,1.1,1.6,0.6,2.5c-0.6,1.1-1.8,2-3,2.6c-1.1,0.5-2.9,1-4.5,0c-0.5-0.3-1-0.9-1.3-1.2c-0.1-0.1-0.2-0.2-0.3-0.3
	c-0.2-0.2-0.3-0.4-0.4-0.5c-0.4-0.4-0.6-0.6-0.9-0.7c-0.1,0.1-0.2,0.2-0.3,0.4c-0.1,0.1-0.1,0.2-0.2,0.3c-0.3,0.4-0.8,1.1-1.7,1.6
	c-1.1,0.5-2.2,0.4-3.2-0.2c-0.7-0.4-1.2-1-1.5-1.3c0,0-0.1-0.1-0.1-0.1c-0.2-0.2-0.3-0.3-0.6-0.4c-0.2-0.1-0.5-0.1-0.8-0.1
	c-0.3,0-0.5,0-0.7,0.1c0,0,0,0,0,0C62.4,42.5,61.7,43.3,60.7,43.4z"/>
<linearGradient id="SVGID_4_" gradientUnits="userSpaceOnUse" x1="70.0268" y1="36.0898" x2="70.5591" y2="44.9974" gradientTransform="matrix(1 0 0 -1 0 84)">
	<stop  offset="0" style="stop-color:#FFA944"/>
	<stop  offset="1" style="stop-color:#FFCF23;stop-opacity:0"/>
</linearGradient>
<path class="st11" d="M60.7,43.4c-1,0.1-1.9-0.7-2-1.7c-0.1-0.9,0.2-1.7,0.7-2.4c0.5-0.7,1.2-1,1.8-1.3c1.2-0.4,2.7-0.3,3.8,0
	c1.1,0.4,1.7,0.9,2.1,1.4c0.1,0.1,0.1,0.1,0.2,0.2c0.2,0.2,0.3,0.4,0.5,0.5c0.1-0.1,0.1-0.2,0.2-0.3c0,0,0.1-0.1,0.1-0.2
	c0.2-0.3,0.6-0.9,1.1-1.3c0.6-0.6,1.6-1.1,2.9-0.8c1.4,0.4,2.3,1.2,2.9,1.8c0.3,0.3,0.6,0.6,0.8,0.9c0.1,0.1,0.1,0.1,0.2,0.2
	c0.1,0.2,0.2,0.3,0.3,0.4c0.1,0.1,0.1,0.1,0.1,0.1c0,0,0,0,0,0c0,0,0.3,0.1,1-0.2c0.7-0.3,1.2-0.8,1.4-1.2c0.5-0.9,1.6-1.1,2.5-0.6
	c0.9,0.5,1.1,1.6,0.6,2.5c-0.6,1.1-1.8,2-3,2.6c-1.1,0.5-2.9,1-4.5,0c-0.5-0.3-1-0.9-1.3-1.2c-0.1-0.1-0.2-0.2-0.3-0.3
	c-0.2-0.2-0.3-0.4-0.4-0.5c-0.4-0.4-0.6-0.6-0.9-0.7c-0.1,0.1-0.2,0.2-0.3,0.4c-0.1,0.1-0.1,0.2-0.2,0.3c-0.3,0.4-0.8,1.1-1.7,1.6
	c-1.1,0.5-2.2,0.4-3.2-0.2c-0.7-0.4-1.2-1-1.5-1.3c0,0-0.1-0.1-0.1-0.1c-0.2-0.2-0.3-0.3-0.6-0.4c-0.2-0.1-0.5-0.1-0.8-0.1
	c-0.3,0-0.5,0-0.7,0.1c0,0,0,0,0,0C62.4,42.5,61.7,43.3,60.7,43.4z"/>
<path class="st12" d="M52.8,45.5c0,1.4-1.1,2.5-2.5,2.5s-2.5-1.1-2.5-2.5s1.1-2.5,2.5-2.5S52.8,44.1,52.8,45.5z"/>
<path class="st13" d="M52.8,45.5c0,1.4-1.1,2.5-2.5,2.5s-2.5-1.1-2.5-2.5s1.1-2.5,2.5-2.5S52.8,44.1,52.8,45.5z"/>
</svg>
