<?xml version="1.0" encoding="utf-8"?>
<!-- Generator: Adobe Illustrator 24.1.0, SVG Export Plug-In . SVG Version: 6.00 Build 0)  -->
<svg version="1.1" id="Слой_1" xmlns="http://www.w3.org/2000/svg" xmlns:xlink="http://www.w3.org/1999/xlink" x="0px" y="0px"
	 viewBox="0 0 77 32" style="enable-background:new 0 0 77 32;" xml:space="preserve">
<style type="text/css">
	.st0{fill:#B1C3CE;}
	.st1{fill:#009FE3;}
	.st2{fill:#43B2FF;}
</style>
<path class="st0" d="M44.1,27.9l1.9-0.1c0.3,0,0.6,0.2,0.6,0.5c0.1,0.3,0.2,0.5,0.3,0.7c0.3,0.4,0.8,0.6,1.5,0.6
	c0.5,0,0.8-0.1,1.1-0.3c0.3-0.2,0.4-0.5,0.4-0.8s-0.1-0.5-0.4-0.7c-0.2-0.2-0.8-0.4-1.7-0.6c-1.4-0.3-2.5-0.8-3.1-1.3
	c-0.6-0.5-0.9-1.2-0.9-2.1c0-0.5,0.2-1.1,0.5-1.6s0.8-0.9,1.4-1.1c0.6-0.3,1.5-0.4,2.6-0.4c1.4,0,2.4,0.3,3.1,0.8
	c0.5,0.4,0.9,0.9,1.1,1.6c0.1,0.4-0.2,0.8-0.6,0.8L50.2,24c-0.3,0-0.5-0.1-0.6-0.4c-0.1-0.3-0.2-0.5-0.4-0.6
	c-0.3-0.2-0.6-0.3-1.1-0.3c-0.4,0-0.7,0.1-0.9,0.2c-0.2,0.2-0.3,0.4-0.3,0.6s0.1,0.3,0.2,0.5c0.2,0.1,0.5,0.3,1.1,0.4
	c1.4,0.3,2.5,0.6,3.1,0.9c0.6,0.3,1.1,0.7,1.4,1.2s0.4,1,0.4,1.6c0,0.7-0.2,1.3-0.6,1.9s-0.9,1-1.6,1.3c-0.7,0.3-1.5,0.4-2.6,0.4
	c-1.8,0-3.1-0.3-3.8-1c-0.5-0.5-0.9-1.2-1.1-1.9C43.5,28.3,43.7,27.9,44.1,27.9z"/>
<path class="st0" d="M54.9,21.6c0-0.4,0.3-0.8,0.8-0.8h4.7c1.2,0,2.1,0.3,2.7,0.9c0.6,0.6,0.9,1.4,0.9,2.4c0,1.1-0.3,1.9-1,2.5
	c-0.6,0.6-1.6,0.9-3,0.9h-1.8v3.2c0,0.4-0.3,0.8-0.8,0.8h-1.8c-0.4,0-0.8-0.3-0.8-0.8v-9.1H54.9z M58.2,25.4H59
	c0.6,0,1.1-0.1,1.3-0.3c0.3-0.2,0.4-0.5,0.4-0.8c0-0.3-0.1-0.6-0.3-0.9c-0.2-0.2-0.6-0.3-1.3-0.3h-0.9V25.4z"/>
<path class="st0" d="M66.1,20.8h2.1c0.2,0,0.4,0.1,0.6,0.3l2,3.3l2-3.3c0.1-0.2,0.3-0.3,0.6-0.3h2.1c0.5,0,0.8,0.6,0.5,1L72.4,27
	v3.8c0,0.4-0.3,0.6-0.6,0.6h-2c-0.4,0-0.6-0.3-0.6-0.6V27l-3.5-5.2C65.3,21.4,65.6,20.8,66.1,20.8z"/>
<path class="st1" d="M5.5,31.4c-0.7,0-1.5-0.1-2.2-0.5c-2.5-1.1-3.7-3.8-3.1-6.4l4.3-19c0.4-1.6,1.4-3.1,2.9-3.9
	c2.3-1.2,5-0.6,6.6,1.2l3,3.3c0.7,0.8,2,0.8,2.8,0L22.5,3c1.1-1.3,2.7-2,4.4-2c2.6,0.1,4.7,1.9,5.2,4.3l1,4.5c0.7,2.9-1,6-3.9,6.7
	c-0.6,0.2-1.3,0.2-1.9,0.2C26,16.6,24.7,17,23.8,18l-1.4,1.5c-0.6,0.6-1.2,1.1-2,1.5c-2.1,0.9-4.4,0.4-6-1c-0.2-0.2-0.5-0.4-0.8-0.5
	c-0.6-0.2-1.3,0.1-1.5,0.8l-1.4,6.8C10.3,29.6,8,31.4,5.5,31.4z"/>
<path class="st2" d="M5.5,31.4c-0.7,0-1.5-0.1-2.2-0.5c-2.5-1.1-3.7-3.8-3.1-6.4l4.3-19c0.4-1.6,1.4-3.1,2.9-3.9
	c2.3-1.2,5-0.6,6.6,1.2l3,3.3c0.7,0.8,2,0.8,2.8,0L22.5,3c1.1-1.3,2.7-2,4.4-2c2.6,0.1,4.7,1.9,5.2,4.3l1,4.5c0.7,2.9-1,6-3.9,6.7
	c-0.6,0.2-1.3,0.2-1.9,0.2C26,16.6,24.7,17,23.8,18l-1.4,1.5c-0.6,0.6-1.2,1.1-2,1.5c-2.1,0.9-4.4,0.4-6-1c-0.2-0.2-0.5-0.4-0.8-0.5
	c-0.6-0.2-1.3,0.1-1.5,0.8l-1.4,6.8C10.3,29.6,8,31.4,5.5,31.4z"/>
<path class="st1" d="M33.4,31.3c-1.4,0-2.9-0.6-3.9-1.6s-1.6-2.4-1.6-3.9c0-0.4,0-0.7,0.1-1.1c0.1-0.4,0.2-0.7,0.3-1
	c0.1-0.3,0.3-0.6,0.5-0.9c0.2-0.3,0.4-0.6,0.7-0.8c0.2-0.2,0.5-0.5,0.8-0.7c0.3-0.2,0.6-0.4,0.9-0.5c0.3-0.1,0.7-0.2,1-0.3
	c0.7-0.1,1.4-0.1,2.1,0c0.4,0.1,0.7,0.2,1,0.3c0.3,0.1,0.7,0.3,1,0.5c0.3,0.2,0.6,0.4,0.8,0.7c0.3,0.2,0.5,0.5,0.7,0.8
	c0.2,0.3,0.4,0.6,0.5,0.9c0.1,0.3,0.2,0.7,0.3,1c0.1,0.4,0.1,0.7,0.1,1.1c0,1.5-0.6,2.9-1.6,3.9C36.3,30.7,34.8,31.3,33.4,31.3z"/>
<path class="st2" d="M33.4,31.3c-1.4,0-2.9-0.6-3.9-1.6s-1.6-2.4-1.6-3.9c0-0.4,0-0.7,0.1-1.1c0.1-0.4,0.2-0.7,0.3-1
	c0.1-0.3,0.3-0.6,0.5-0.9c0.2-0.3,0.4-0.6,0.7-0.8c0.2-0.2,0.5-0.5,0.8-0.7c0.3-0.2,0.6-0.4,0.9-0.5c0.3-0.1,0.7-0.2,1-0.3
	c0.7-0.1,1.4-0.1,2.1,0c0.4,0.1,0.7,0.2,1,0.3c0.3,0.1,0.7,0.3,1,0.5c0.3,0.2,0.6,0.4,0.8,0.7c0.3,0.2,0.5,0.5,0.7,0.8
	c0.2,0.3,0.4,0.6,0.5,0.9c0.1,0.3,0.2,0.7,0.3,1c0.1,0.4,0.1,0.7,0.1,1.1c0,1.5-0.6,2.9-1.6,3.9C36.3,30.7,34.8,31.3,33.4,31.3z"/>
</svg>
