<?xml version="1.0" encoding="utf-8"?>
<!-- Generator: Adobe Illustrator 24.1.0, SVG Export Plug-In . SVG Version: 6.00 Build 0)  -->
<svg version="1.1" id="Слой_1" xmlns="http://www.w3.org/2000/svg" xmlns:xlink="http://www.w3.org/1999/xlink" x="0px" y="0px"
	 viewBox="0 0 109 131" style="enable-background:new 0 0 109 131;" xml:space="preserve">
<style type="text/css">
	.st0{opacity:0.8;fill:#FFFFFF;enable-background:new    ;}
	.st1{opacity:0.8;}
	.st2{fill:#A7CBF8;}
	.st3{fill:#1461C0;}
	.st4{fill:url(#SVGID_1_);}
	.st5{fill:#009FE3;}
	.st6{fill:#FFFFFF;}
	.st7{fill:url(#SVGID_2_);}
	.st8{fill:#2E79ED;}
	.st9{fill:#76C033;}
	.st10{fill:#9CDBFF;}
</style>
<circle class="st0" cx="37.7" cy="92.5" r="37.7"/>
<g class="st1">
	<circle class="st2" cx="55.5" cy="1.7" r="1.7"/>
	<circle class="st2" cx="68.5" cy="1.7" r="1.7"/>
	<circle class="st2" cx="81.4" cy="1.7" r="1.7"/>
	<circle class="st2" cx="94.4" cy="1.7" r="1.7"/>
	<circle class="st2" cx="107.3" cy="1.7" r="1.7"/>
	<circle class="st2" cx="55.5" cy="10.3" r="1.7"/>
	<circle class="st2" cx="68.5" cy="10.3" r="1.7"/>
	<circle class="st2" cx="81.4" cy="10.3" r="1.7"/>
	<circle class="st2" cx="94.4" cy="10.3" r="1.7"/>
	<circle class="st2" cx="107.3" cy="10.3" r="1.7"/>
	<circle class="st2" cx="55.5" cy="18.9" r="1.7"/>
	<circle class="st2" cx="68.5" cy="18.9" r="1.7"/>
	<circle class="st2" cx="81.4" cy="18.9" r="1.7"/>
	<circle class="st2" cx="94.4" cy="18.9" r="1.7"/>
	<circle class="st2" cx="107.3" cy="18.9" r="1.7"/>
	<circle class="st2" cx="55.5" cy="27.6" r="1.7"/>
	<circle class="st2" cx="68.5" cy="27.6" r="1.7"/>
	<circle class="st2" cx="81.4" cy="27.6" r="1.7"/>
	<circle class="st2" cx="94.4" cy="27.6" r="1.7"/>
	<circle class="st2" cx="107.3" cy="27.6" r="1.7"/>
	<circle class="st2" cx="55.5" cy="36.2" r="1.7"/>
	<circle class="st2" cx="68.5" cy="36.2" r="1.7"/>
	<circle class="st2" cx="81.4" cy="36.2" r="1.7"/>
	<circle class="st2" cx="94.4" cy="36.2" r="1.7"/>
	<circle class="st2" cx="107.3" cy="36.2" r="1.7"/>
	<circle class="st2" cx="55.5" cy="44.9" r="1.7"/>
	<circle class="st2" cx="68.5" cy="44.9" r="1.7"/>
	<circle class="st2" cx="81.4" cy="44.9" r="1.7"/>
	<circle class="st2" cx="94.4" cy="44.9" r="1.7"/>
	<circle class="st2" cx="107.3" cy="44.9" r="1.7"/>
	<circle class="st2" cx="55.5" cy="53.5" r="1.7"/>
	<circle class="st2" cx="68.5" cy="53.5" r="1.7"/>
	<circle class="st2" cx="81.4" cy="53.5" r="1.7"/>
	<circle class="st2" cx="94.4" cy="53.5" r="1.7"/>
	<circle class="st2" cx="107.3" cy="53.5" r="1.7"/>
</g>
<path class="st3" d="M32.8,29.1h58.5c1.1,0,2,0.9,2,2v78.3c0,1.1-0.9,2-2,2H32.8V29.1z"/>
<linearGradient id="SVGID_1_" gradientUnits="userSpaceOnUse" x1="121.6528" y1="109.1771" x2="12.6113" y2="21.9044" gradientTransform="matrix(1 0 0 -1 0 132)">
	<stop  offset="0" style="stop-color:#3596FF"/>
	<stop  offset="1" style="stop-color:#1815B0"/>
</linearGradient>
<path class="st4" d="M32.8,29.1h58.5c1.1,0,2,0.9,2,2v78.3c0,1.1-0.9,2-2,2H32.8V29.1z"/>
<path class="st5" d="M29.4,25.7h56.5c2.2,0,4,1.8,4,4v78.3H29.4V25.7z"/>
<path class="st6" d="M29.4,25.7h56.5c2.2,0,4,1.8,4,4v78.3H29.4V25.7z"/>
<path class="st5" d="M26.9,26.2c0-1.7,1.3-3,3-3h54.5c1.7,0,3,1.3,3,3v76.3c0,1.7-1.3,3-3,3H26.9V26.2z"/>
<linearGradient id="SVGID_2_" gradientUnits="userSpaceOnUse" x1="30.4676" y1="110.6753" x2="80.393" y2="28.1455" gradientTransform="matrix(1 0 0 -1 0 132)">
	<stop  offset="0" style="stop-color:#48BDFF"/>
	<stop  offset="1" style="stop-color:#2B7FFF"/>
</linearGradient>
<path class="st7" d="M26.9,26.2c0-1.7,1.3-3,3-3h54.5c1.7,0,3,1.3,3,3v76.3c0,1.7-1.3,3-3,3H26.9V26.2z"/>
<path class="st5" d="M72.1,36.6c-0.2,0-0.4,0-0.6-0.1c-0.7-0.3-1-1-0.9-1.8l1.2-5.2c0.1-0.4,0.4-0.9,0.8-1.1
	c0.6-0.3,1.4-0.2,1.9,0.3l0.8,0.9c0.2,0.2,0.6,0.2,0.8,0l0.8-0.9c0.3-0.4,0.8-0.6,1.2-0.6c0.7,0,1.3,0.5,1.5,1.2l0.3,1.2
	c0.2,0.8-0.3,1.7-1.1,1.9c-0.2,0.1-0.4,0.1-0.5,0.1c-0.4,0-0.7,0.1-1,0.4l-0.4,0.4c-0.2,0.2-0.3,0.3-0.6,0.4
	c-0.6,0.2-1.2,0.1-1.7-0.3c-0.1-0.1-0.1-0.1-0.2-0.1c-0.2-0.1-0.4,0-0.4,0.2l-0.4,1.9C73.5,36.1,72.9,36.6,72.1,36.6z"/>
<path class="st8" d="M72.1,36.6c-0.2,0-0.4,0-0.6-0.1c-0.7-0.3-1-1-0.9-1.8l1.2-5.2c0.1-0.4,0.4-0.9,0.8-1.1
	c0.6-0.3,1.4-0.2,1.9,0.3l0.8,0.9c0.2,0.2,0.6,0.2,0.8,0l0.8-0.9c0.3-0.4,0.8-0.6,1.2-0.6c0.7,0,1.3,0.5,1.5,1.2l0.3,1.2
	c0.2,0.8-0.3,1.7-1.1,1.9c-0.2,0.1-0.4,0.1-0.5,0.1c-0.4,0-0.7,0.1-1,0.4l-0.4,0.4c-0.2,0.2-0.3,0.3-0.6,0.4
	c-0.6,0.2-1.2,0.1-1.7-0.3c-0.1-0.1-0.1-0.1-0.2-0.1c-0.2-0.1-0.4,0-0.4,0.2l-0.4,1.9C73.5,36.1,72.9,36.6,72.1,36.6z"/>
<path class="st5" d="M80,36.6c-0.4,0-0.8-0.2-1.1-0.4c-0.3-0.3-0.5-0.7-0.5-1.1c0-0.1,0-0.2,0-0.3c0-0.1,0.1-0.2,0.1-0.3
	c0-0.1,0.1-0.2,0.1-0.2c0.1-0.1,0.1-0.2,0.2-0.2c0.1-0.1,0.1-0.1,0.2-0.2c0.1-0.1,0.2-0.1,0.3-0.1c0.1,0,0.2-0.1,0.3-0.1
	c0.2,0,0.4,0,0.6,0c0.1,0,0.2,0.1,0.3,0.1s0.2,0.1,0.3,0.1c0.1,0.1,0.2,0.1,0.2,0.2c0.1,0.1,0.1,0.1,0.2,0.2
	c0.1,0.1,0.1,0.2,0.1,0.2c0,0.1,0.1,0.2,0.1,0.3c0,0.1,0,0.2,0,0.3c0,0.4-0.2,0.8-0.5,1.1C80.8,36.5,80.4,36.6,80,36.6z"/>
<path class="st8" d="M80,36.6c-0.4,0-0.8-0.2-1.1-0.4c-0.3-0.3-0.5-0.7-0.5-1.1c0-0.1,0-0.2,0-0.3c0-0.1,0.1-0.2,0.1-0.3
	c0-0.1,0.1-0.2,0.1-0.2c0.1-0.1,0.1-0.2,0.2-0.2c0.1-0.1,0.1-0.1,0.2-0.2c0.1-0.1,0.2-0.1,0.3-0.1c0.1,0,0.2-0.1,0.3-0.1
	c0.2,0,0.4,0,0.6,0c0.1,0,0.2,0.1,0.3,0.1s0.2,0.1,0.3,0.1c0.1,0.1,0.2,0.1,0.2,0.2c0.1,0.1,0.1,0.1,0.2,0.2
	c0.1,0.1,0.1,0.2,0.1,0.2c0,0.1,0.1,0.2,0.1,0.3c0,0.1,0,0.2,0,0.3c0,0.4-0.2,0.8-0.5,1.1C80.8,36.5,80.4,36.6,80,36.6z"/>
<path class="st9" d="M36.2,105.5h11.8V119l-5.9-4.6l-5.9,4.6V105.5z"/>
<path class="st10" d="M46.4,72.1c1,0,1.6-0.7,1.6-1.6c0-0.4,0-0.7-0.4-1.3L47.5,69c1-1.1,1.5-2.6,1.5-4.4v-1.5
	c0-3.9-2.3-6.3-6.2-6.3c-4,0-6.2,2.4-6.2,6.3v1.5c0,3.9,2.3,6.2,6.2,6.2c0.6,0,1.1,0,1.6-0.2l0.1,0.2C45.1,71.7,45.7,72.1,46.4,72.1
	z M40.5,64.8v-1.8c0-2,0.8-3.1,2.3-3.1c1.4,0,2.3,1.2,2.3,3.1v1.8c0,0.5-0.1,0.9-0.2,1.3l-0.1-0.1c-0.2-0.2-0.6-0.3-0.9-0.3
	c-0.8,0-1.4,0.6-1.4,1.4c0,0.2,0.1,0.6,0.2,0.8l0.1,0.1c0,0-0.1,0-0.1,0C41.2,67.8,40.5,66.7,40.5,64.8z"/>
<path class="st6" d="M46.4,72.1c1,0,1.6-0.7,1.6-1.6c0-0.4,0-0.7-0.4-1.3L47.5,69c1-1.1,1.5-2.6,1.5-4.4v-1.5c0-3.9-2.3-6.3-6.2-6.3
	c-4,0-6.2,2.4-6.2,6.3v1.5c0,3.9,2.3,6.2,6.2,6.2c0.6,0,1.1,0,1.6-0.2l0.1,0.2C45.1,71.7,45.7,72.1,46.4,72.1z M40.5,64.8v-1.8
	c0-2,0.8-3.1,2.3-3.1c1.4,0,2.3,1.2,2.3,3.1v1.8c0,0.5-0.1,0.9-0.2,1.3l-0.1-0.1c-0.2-0.2-0.6-0.3-0.9-0.3c-0.8,0-1.4,0.6-1.4,1.4
	c0,0.2,0.1,0.6,0.2,0.8l0.1,0.1c0,0-0.1,0-0.1,0C41.2,67.8,40.5,66.7,40.5,64.8z"/>
<path class="st10" d="M50.5,67.8c0,0.5,0.3,1.1,0.8,1.6c1,0.9,2.7,1.5,4.7,1.5c3.6,0,5.9-1.8,5.9-4.5c0-2.1-1.3-3.4-3.8-3.8
	l-1.8-0.3c-1.3-0.2-1.8-0.7-1.8-1.3c0-0.6,0.6-1,1.6-1c0.9,0,1.6,0.3,2.4,0.9c0.5,0.4,1,0.6,1.5,0.6c0.9,0,1.5-0.6,1.5-1.4
	c0-0.6-0.3-1.1-0.8-1.7c-0.9-0.9-2.7-1.4-4.5-1.4c-3.3,0-5.4,1.7-5.4,4.4c0,2.2,1.2,3.4,3.8,3.9l1.7,0.3c1.4,0.3,1.9,0.6,1.9,1.2
	c0,0.7-0.6,1.1-1.8,1.1c-0.8,0-1.8-0.4-2.6-1c-0.6-0.5-1.1-0.6-1.6-0.6C51.1,66.2,50.5,66.8,50.5,67.8z"/>
<path class="st6" d="M50.5,67.8c0,0.5,0.3,1.1,0.8,1.6c1,0.9,2.7,1.5,4.7,1.5c3.6,0,5.9-1.8,5.9-4.5c0-2.1-1.3-3.4-3.8-3.8l-1.8-0.3
	c-1.3-0.2-1.8-0.7-1.8-1.3c0-0.6,0.6-1,1.6-1c0.9,0,1.6,0.3,2.4,0.9c0.5,0.4,1,0.6,1.5,0.6c0.9,0,1.5-0.6,1.5-1.4
	c0-0.6-0.3-1.1-0.8-1.7c-0.9-0.9-2.7-1.4-4.5-1.4c-3.3,0-5.4,1.7-5.4,4.4c0,2.2,1.2,3.4,3.8,3.9l1.7,0.3c1.4,0.3,1.9,0.6,1.9,1.2
	c0,0.7-0.6,1.1-1.8,1.1c-0.8,0-1.8-0.4-2.6-1c-0.6-0.5-1.1-0.6-1.6-0.6C51.1,66.2,50.5,66.8,50.5,67.8z"/>
<path class="st10" d="M63.2,64.6c0,3.9,2.3,6.2,6.2,6.2c3.6,0,5.9-2,5.9-5.2v-0.5c0-1.4-0.6-2-2.1-2h-2.2c-1,0-1.5,0.4-1.5,1.3
	s0.5,1.3,1.5,1.3h0.6V66c0,1-0.8,1.7-2,1.7c-1.6,0-2.4-1.1-2.4-3.1v-1.4c0-2.1,0.8-3.1,2.5-3.1c1.2,0,1.8,0.8,2.7,1.3
	c0.3,0.2,0.6,0.3,1,0.3c0.9,0,1.6-0.6,1.6-1.5c0-0.9-0.6-1.7-1.6-2.3c-1-0.6-2.4-1-3.9-1c-3.8,0-6.2,2.4-6.2,6.1V64.6z"/>
<path class="st6" d="M63.2,64.6c0,3.9,2.3,6.2,6.2,6.2c3.6,0,5.9-2,5.9-5.2v-0.5c0-1.4-0.6-2-2.1-2h-2.2c-1,0-1.5,0.4-1.5,1.3
	s0.5,1.3,1.5,1.3h0.6V66c0,1-0.8,1.7-2,1.7c-1.6,0-2.4-1.1-2.4-3.1v-1.4c0-2.1,0.8-3.1,2.5-3.1c1.2,0,1.8,0.8,2.7,1.3
	c0.3,0.2,0.6,0.3,1,0.3c0.9,0,1.6-0.6,1.6-1.5c0-0.9-0.6-1.7-1.6-2.3c-1-0.6-2.4-1-3.9-1c-3.8,0-6.2,2.4-6.2,6.1V64.6z"/>
</svg>
