<?xml version="1.0" encoding="utf-8"?>
<!-- Generator: Adobe Illustrator 24.1.0, SVG Export Plug-In . SVG Version: 6.00 Build 0)  -->
<svg version="1.1" id="Слой_1" xmlns="http://www.w3.org/2000/svg" xmlns:xlink="http://www.w3.org/1999/xlink" x="0px" y="0px"
	 viewBox="0 0 32 32" style="enable-background:new 0 0 32 32;" xml:space="preserve">
<style type="text/css">
	.st0{fill:#FF99A2;}
	.st1{fill-rule:evenodd;clip-rule:evenodd;fill:#FFFFFF;}
	.st2{fill-rule:evenodd;clip-rule:evenodd;fill:#FF99A2;}
</style>
<path class="st0" d="M8,0h16c4.4,0,8,3.6,8,8v16c0,4.4-3.6,8-8,8H8c-4.4,0-8-3.6-8-8V8C0,3.6,3.6,0,8,0z"/>
<path class="st1" d="M16.6,21.8L12,24.6v-2.8h-1.5c-0.8,0-1.5-0.7-1.5-1.5v-9c0-0.8,0.7-1.5,1.5-1.5h11.9c0.8,0,1.5,0.7,1.5,1.5v9
	c0,0.8-0.7,1.5-1.5,1.5H16.6z"/>
<path class="st2" d="M11.4,15.4c-0.5,0.5-0.5,1.2,0,1.7c0.5,0.5,1.2,0.5,1.7,0c0.5-0.5,0.5-1.2,0-1.7C12.7,14.9,11.9,14.9,11.4,15.4
	z"/>
<path class="st2" d="M15.8,15.4c-0.5,0.5-0.5,1.2,0,1.7c0.5,0.5,1.2,0.5,1.7,0c0.5-0.5,0.5-1.2,0-1.7C17,14.9,16.3,14.9,15.8,15.4z"
	/>
<path class="st2" d="M20,15.4c-0.5,0.5-0.5,1.2,0,1.7c0.5,0.5,1.2,0.5,1.7,0c0.5-0.5,0.5-1.2,0-1.7C21.2,14.9,20.5,14.9,20,15.4z"/>
</svg>
