<?xml version="1.0" encoding="utf-8"?>
<!-- Generator: Adobe Illustrator 24.1.0, SVG Export Plug-In . SVG Version: 6.00 Build 0)  -->
<svg version="1.1" id="Слой_1" xmlns="http://www.w3.org/2000/svg" xmlns:xlink="http://www.w3.org/1999/xlink" x="0px" y="0px"
	 viewBox="0 0 18 15" style="enable-background:new 0 0 18 15;" xml:space="preserve">
<style type="text/css">
	.st0{fill:#46BAFF;}
</style>
<path class="st0" d="M17,1.1c-0.1,0.4-0.2,0.9-0.3,1.3c-0.4,2.1-0.9,4.2-1.3,6.3c-0.3,1.5-0.6,3-0.9,4.4c0,0.2-0.1,0.4-0.2,0.6
	c-0.2,0.3-0.5,0.4-0.8,0.3c-0.2,0-0.3-0.1-0.5-0.2c-1.2-0.9-2.5-1.8-3.7-2.7c-0.1-0.1-0.2-0.1-0.3,0c-0.6,0.6-1.2,1.2-1.8,1.8
	c-0.2,0.1-0.3,0.3-0.5,0.3c-0.1,0-0.2,0-0.1-0.1c0.1-0.8,0.1-1.5,0.2-2.3c0-0.5,0.1-1,0.1-1.4c0-0.1,0-0.1,0.1-0.2
	c1.1-1,2.3-2,3.4-3c1.2-1.1,2.5-2.2,3.7-3.3c0,0,0,0,0.1-0.1c0-0.1,0.1-0.1,0.1-0.2c0-0.1-0.1-0.1-0.2-0.1c-0.2,0-0.3,0.1-0.5,0.2
	c-1,0.6-2,1.3-3,1.9C8.4,5.8,6.5,7,4.6,8.2c-0.1,0.1-0.2,0.1-0.3,0C3.1,7.9,2,7.5,0.8,7.1C0.6,7.1,0.5,7,0.3,6.9
	c-0.4-0.2-0.4-0.5-0.1-0.8C0.4,6,0.6,5.9,0.8,5.8c5-1.9,10-3.8,15-5.7C16,0,16.1,0,16.3,0c0.3,0,0.6,0.2,0.7,0.5
	c0,0.1,0,0.1,0.1,0.2C17,0.8,17,0.9,17,1.1z"/>
</svg>
