<?xml version="1.0" encoding="utf-8"?>
<!-- Generator: Adobe Illustrator 24.1.0, SVG Export Plug-In . SVG Version: 6.00 Build 0)  -->
<svg version="1.1" id="Слой_1" xmlns="http://www.w3.org/2000/svg" xmlns:xlink="http://www.w3.org/1999/xlink" x="0px" y="0px"
	 viewBox="0 0 17 16" style="enable-background:new 0 0 17 16;" xml:space="preserve">
<style type="text/css">
	.st0{fill:#46BAFF;}
</style>
<path class="st0" d="M3.6,0c0.3,0,0.5,0,0.8,0c0,0,0.1,0,0.1,0c0.7,0.1,1.4,0.4,2,0.9c0.2,0.2,0.4,0.2,0.7,0.2
	c1.1-0.1,2.2,0,3.3,0.4c3,1.1,4.8,4,4.5,7.2c0,0.3,0,0.4,0.2,0.6c0.7,0.9,1.1,2,0.9,3.2c-0.6,3.6-4.5,4.1-6.5,2.7
	c-0.1-0.1-0.2-0.1-0.3-0.1c-0.4,0.1-0.9,0.1-1.3,0.1c-2.3-0.1-4.1-1-5.5-2.8c-1.3-1.7-1.8-3.7-1.5-5.8c0-0.1,0-0.3-0.1-0.4
	C0.4,5.9,0.2,5.5,0.1,5c0-0.1,0-0.3-0.1-0.4c0-0.3,0-0.6,0-0.9c0.1-0.1,0.1-0.2,0.1-0.2c0.3-1.8,1.5-3,3.3-3.3
	C3.5,0.1,3.6,0.1,3.6,0z M7.7,4.3C6.8,4.3,6,4.4,5.3,4.9C4.7,5.4,4.4,6.1,4.5,6.9c0.1,0.9,0.7,1.3,1.4,1.6C6.5,8.7,7.1,8.8,7.7,9
	C8.1,9,8.5,9.1,8.8,9.3c0.4,0.1,0.8,0.4,0.8,0.9c0,0.4-0.2,0.8-0.7,1.1c-0.5,0.3-1.1,0.3-1.7,0.2c-0.7-0.2-1.1-0.7-1.4-1.3
	C5.9,9.9,5.8,9.7,5.6,9.6C5.4,9.4,5.1,9.3,4.7,9.5c-0.3,0.1-0.4,0.4-0.4,0.7c0,0.2,0.1,0.4,0.2,0.6c0.4,0.8,1,1.3,1.8,1.5
	c0.8,0.3,1.7,0.3,2.5,0.1c0.5-0.1,1-0.2,1.4-0.4c0.7-0.3,1.4-1.4,1.2-2.2c-0.2-0.7-0.5-1.2-1.2-1.5C9.6,7.9,8.8,7.7,8,7.6
	C7.5,7.5,6.9,7.4,6.5,7c-0.3-0.3-0.4-0.7-0.1-1c0.2-0.2,0.5-0.4,0.8-0.5c0.4-0.1,0.9-0.1,1.3,0c0.2,0,0.3,0.1,0.5,0.2
	c0.3,0.2,0.5,0.6,0.7,0.9c0.2,0.3,0.5,0.4,0.9,0.3c0.3-0.1,0.6-0.4,0.6-0.7c0-0.3,0-0.5-0.2-0.7c-0.3-0.5-0.7-0.9-1.2-1.1
	C9.1,4.3,8.4,4.3,7.7,4.3z"/>
</svg>
