<?xml version="1.0" encoding="utf-8"?>
<!-- Generator: Adobe Illustrator 24.1.0, SVG Export Plug-In . SVG Version: 6.00 Build 0)  -->
<svg version="1.1" id="Слой_1" xmlns="http://www.w3.org/2000/svg" xmlns:xlink="http://www.w3.org/1999/xlink" x="0px" y="0px"
	 viewBox="0 0 32 32" style="enable-background:new 0 0 32 32;" xml:space="preserve">
<style type="text/css">
	.st0{fill:#42C6FF;}
	.st1{fill-rule:evenodd;clip-rule:evenodd;fill:#FFFFFF;}
	.st2{fill-rule:evenodd;clip-rule:evenodd;fill:#42C6FF;}
</style>
<path class="st0" d="M8,0h16c4.4,0,8,3.6,8,8v16c0,4.4-3.6,8-8,8H8c-4.4,0-8-3.6-8-8V8C0,3.6,3.6,0,8,0z"/>
<path class="st1" d="M23.5,16.4l-7.9,7.9c-0.6,0.6-1.6,0.6-2.2,0l-5.5-5.5c-0.6-0.6-0.6-1.6,0-2.2l7.9-7.9c0.4-0.4,0.9-0.5,1.4-0.4
	l5.1,1c0.3,0.1,0.5,0.3,0.6,0.6l1,5.1C24,15.5,23.8,16.1,23.5,16.4z"/>
<path class="st2" d="M18.9,11.3c-0.5,0.5-0.5,1.3,0,1.7c0.5,0.5,1.3,0.5,1.7,0c0.5-0.5,0.5-1.3,0-1.7C20.2,10.8,19.4,10.8,18.9,11.3
	z"/>
</svg>
