<svg version="1.1" id="Слой_1" xmlns="http://www.w3.org/2000/svg" x="0" y="0" viewBox="0 0 20 21" xml:space="preserve"><path d="M0 2.7v9.4c0 .5.4.9.9.9H4c.6 0 1-.4 1-.9V2.7c0-.5-.4-.9-.9-.9H.9c-.5 0-.9.4-.9.9zm1.6 7.8c0-.5.4-.9.9-.9s.9.4.9.9-.4.9-.9.9-.9-.4-.9-.9zm10.6 10c.9 0 2.8-.3 2.8-3.2 0-1.6-1-2.6-1.3-3.7h4c1.3 0 2.3-1.1 2.3-2.3 0-.7-.3-1.4-.8-1.9.4-.9.3-2.2-.4-3.1.3-1 0-2.3-.7-2.9.2-.7.1-1.3-.2-1.8C17.1.5 15.1.4 13.4.4h-.1c-1.9 0-3.4.7-4.6 1.2-.6.4-1.4.8-2 .8-.2 0-.4.2-.4.5v8.4c0 .1 0 .3.1.4 1.6 1.5 2.2 3.1 3.5 4.4.6.6.8 1.4 1 2.3.1.6.5 2.1 1.3 2.1z"/></svg>