<svg version="1.1" id="Слой_1" xmlns="http://www.w3.org/2000/svg" x="0" y="0" viewBox="0 0 20 21" xml:space="preserve"><path d="M4.1 9.2H.9c-.5 0-.9.5-.9 1v9.4c0 .5.4.9.9.9H4c.5 0 .9-.4.9-.9v-9.4c.1-.5-.3-1-.8-1zm-1.6 9.7c-.5 0-.9-.4-.9-.9s.4-.9.9-.9.9.4.9.9-.4.9-.9.9zM15 3.7C15 .8 13.1.5 12.2.5c-.8 0-1.2 1.6-1.3 2.3-.2.9-.4 1.7-1 2.3-1.3 1.3-2 2.9-3.5 4.4-.1.1-.2.2-.2.3v8.4c0 .2.2.4.4.5.6 0 1.4.4 2.1.6 1.2.5 2.8 1.2 4.6 1.2h.1c1.7 0 3.7 0 4.5-1.1.4-.5.4-1.1.2-1.8.7-.7 1-1.9.7-2.9.7-.9.7-2.2.4-3.1.5-.5.8-1.2.7-1.9 0-1.2-1-2.3-2.3-2.3h-4C14 6.3 15 5.3 15 3.7z"/></svg>