<?xml version="1.0" encoding="utf-8"?><svg xmlns="http://www.w3.org/2000/svg" xmlns:xlink="http://www.w3.org/1999/xlink"><symbol viewBox="0 0 16 19" id="icon-android" xmlns="http://www.w3.org/2000/svg"><path d="M5.3 4.1c.1.1.2.1.3.1.1 0 .2 0 .3-.1.1-.1.2-.2.2-.3s0-.2-.1-.3c-.1-.1-.2-.1-.4-.1-.1 0-.2 0-.3.1 0 .1-.1.2-.1.3s.1.2.1.3zm4.7 0c.1.1.2.1.3.1.1 0 .2 0 .3-.1.1-.1.1-.2.1-.3s0-.2-.1-.3c-.1-.1-.2-.1-.3-.1-.1 0-.2 0-.3.1 0 .1-.1.2-.1.3s.1.2.1.3zM1.3 6.3c.3 0 .6.1.8.3.2.2.3.5.3.8v4.8c0 .3-.1.6-.3.8-.2.2-.5.3-.8.3-.3 0-.6-.1-.8-.3-.2-.2-.3-.5-.3-.8V7.4c0-.3.1-.6.3-.8.2-.2.5-.3.8-.3zm11.8.2v7.4c0 .3-.1.6-.4.9s-.5.4-.9.4H11v2.5c0 .3-.1.6-.3.8s-.5.3-.8.3c-.3 0-.6-.1-.8-.3-.2-.2-.3-.5-.3-.8v-2.5H7.2v2.5c0 .3-.1.6-.3.8-.2.2-.5.3-.8.3-.3 0-.6-.1-.8-.3-.3-.2-.4-.5-.4-.8v-2.5h-.8c-.3 0-.6-.1-.9-.4s-.4-.5-.4-.9V6.5h10.3zM10.5 2c.8.4 1.4 1 1.9 1.7s.7 1.5.7 2.4H2.8c0-.9.2-1.7.7-2.4C4 3 4.7 2.4 5.5 2L4.7.5c-.1-.1 0-.2.1-.2s.2 0 .2.1l.8 1.5c.7-.4 1.4-.5 2.2-.5.8 0 1.5.2 2.2.5L11 .4c.1-.1.1-.1.2-.1.1.1.1.1.1.2L10.5 2zm5.4 5.4v4.8c0 .3-.1.6-.3.8-.2.2-.5.3-.8.3-.3 0-.6-.1-.8-.3s-.3-.5-.3-.8V7.4c0-.3.1-.6.3-.8.2-.2.5-.3.8-.3.3 0 .6.1.8.3.1.3.3.5.3.8z"/></symbol><symbol viewBox="0 0 16 20" id="icon-apple" xmlns="http://www.w3.org/2000/svg"><path d="M15.7 14.4c-.3.9-.7 1.9-1.4 2.8-1 1.5-1.9 2.2-2.9 2.2-.4 0-.9-.1-1.6-.4-.6-.2-1.2-.4-1.7-.4s-1 .1-1.6.4c-.6.3-1.1.4-1.5.4-1.1 0-2.3-1-3.4-2.9S0 12.7 0 10.9c0-1.7.4-3.1 1.3-4.2.8-1.1 1.9-1.6 3.2-1.6.5 0 1.2.1 2 .3.8.2 1.3.3 1.5.3.3 0 .9-.1 1.6-.4.8-.3 1.4-.4 1.9-.4.9 0 1.7.2 2.4.7.4.3.8.6 1.2 1.1-.6.5-1 .9-1.3 1.3-.5.7-.7 1.5-.7 2.3 0 .9.3 1.8.8 2.5.5.9 1.1 1.4 1.8 1.6zM11.5 1.3c0 .5-.1 1-.3 1.5-.2.6-.6 1.1-1 1.5-.5.5-.9.8-1.3.9-.3.1-.6.1-1.1.2 0-1.1.3-2.1.9-2.9.6-.8 1.5-1.3 2.8-1.7v.5z"/></symbol><symbol viewBox="0 0 14 9" id="icon-arrow-down" xmlns="http://www.w3.org/2000/svg"><path d="M13.8 1.2l-.6-.6c-.2-.2-.4-.2-.5 0L7 6.3 1.3.6C1.2.4.9.4.8.6l-.6.6c-.2.2-.2.4 0 .6l6.5 6.5c.2.2.4.2.5 0l6.5-6.5c.2-.2.2-.4.1-.6z"/></symbol><symbol viewBox="0 0 9 14" id="icon-arrow-line-right" xmlns="http://www.w3.org/2000/svg"><path d="M1.2.2L.6.8c-.1.2-.1.4 0 .5L6.3 7 .6 12.7c-.2.1-.2.4 0 .5l.6.6c.1.2.4.2.5 0l6.5-6.5c.2-.2.2-.4 0-.5L1.8.2c-.2-.1-.4-.1-.6 0z"/></symbol><symbol viewBox="0 0 8 14" id="icon-arrow-right" xmlns="http://www.w3.org/2000/svg"><path d="M.8.2L.1.8c-.1.2-.1.4 0 .5L5.8 7 .1 12.7c-.1.1-.1.4 0 .5l.6.6c.2.2.4.2.5 0l6.6-6.5c.2-.2.2-.4 0-.5L1.3.2C1.1.1.9.1.8.2z"/></symbol><symbol viewBox="0 0 19 11" id="icon-arrow-up" xmlns="http://www.w3.org/2000/svg"><path d="M10.6.6C10.2.2 9.8.2 9.4.5L1.2 8.8c-.4.4-.4.9 0 1.2l.5.5c.4.4.8.4 1.2 0L10 3.3l7 7.2c.4.4.8.4 1.2 0l.5-.5c.4-.3.4-.8 0-1.2L10.6.6z"/></symbol><symbol viewBox="0 0 24 24" id="icon-check-fill" xmlns="http://www.w3.org/2000/svg"><path d="M24 12c0 6.6-5.4 12-12 12S0 18.6 0 12 5.4 0 12 0s12 5.4 12 12zm-5.9-2.7c.4-.5.4-1.2 0-1.6H18c-.5-.4-1.2-.4-1.7.1l-5.6 6.4-3.1-3.1c-.5-.5-1.2-.5-1.7 0s-.5 1.2 0 1.7l3.9 3.9c.2.2.5.4.8.4h.1c.3 0 .6-.2.9-.4l6.5-7.4z"/></symbol><symbol viewBox="0 0 11 11" id="icon-close" xmlns="http://www.w3.org/2000/svg"><path d="M7.5 5l3.4-3.3c.2-.2.2-.5 0-.7l-.8-.8c-.2-.2-.6-.2-.8 0L6 3.5 2.6.2c-.2-.2-.5-.2-.7 0l-.8.7c-.2.2-.2.5 0 .7L4.5 5 1.1 8.4c-.2.2-.2.5 0 .7l.8.8c.2.2.5.2.7 0L6 6.5l3.3 3.4c.2.2.5.2.7 0l.8-.8c.2-.2.2-.5 0-.7L7.5 5z"/></symbol><symbol viewBox="0 0 18 17" id="icon-comparison" xmlns="http://www.w3.org/2000/svg"><path d="M17.2 2.8H14V1.6c0-.4-.3-.7-.8-.7H4.8c-.5-.1-.8.3-.8.7v1.2H.8c-.5 0-.8.4-.8.8v1.8c0 2.1 2.4 4.1 5.3 4.5 1 1.6 2.2 2.3 2.2 2.3v2.2H6c-1.1 0-2 .7-2 1.8v.4c0 .2.2.4.4.4h9.2c.2 0 .4-.2.4-.4v-.4c0-1.1-.9-1.8-2-1.8h-1.5v-2.2s1.1-.7 2.1-2.3c3-.4 5.4-2.5 5.4-4.6V3.6c0-.4-.3-.8-.8-.8zM2 5.3v-.5h2c0 1 .2 1.9.4 2.7C2.9 7 2 6 2 5.3zm14 0c0 .7-.9 1.7-2.4 2.3.2-.8.3-1.7.4-2.7h2v.4zm-4 .2l-1.2 1.2.3 1.7c.1.3-.3.6-.5.4L9 8l-1.5.8c-.3.2-.6-.1-.6-.4l.3-1.7L6 5.5c-.2-.2-.1-.6.2-.6l1.7-.2.8-1.6c.1-.3.5-.3.7 0l.8 1.6 1.7.2c.2 0 .3.4.1.6z"/></symbol><symbol viewBox="0 0 18 13" id="icon-coupons" xmlns="http://www.w3.org/2000/svg"><path d="M4 3.3v6h10v-6H4zm12.5 3c0-.8.7-1.5 1.5-1.5v-3C18 1 17.3.3 16.5.3h-15C.7.3 0 1 0 1.8v3c.8 0 1.5.7 1.5 1.5S.8 7.8 0 7.8v3c0 .8.7 1.5 1.5 1.5h15c.8 0 1.5-.7 1.5-1.5v-3c-.8 0-1.5-.6-1.5-1.5zM15 3.1v6.5c0 .4-.3.7-.8.7H3.8c-.5 0-.8-.3-.8-.7V3.1c0-.4.3-.8.8-.8h10.5c.4 0 .7.4.7.8z"/></symbol><symbol viewBox="0 0 24 24" id="icon-customer" xmlns="http://www.w3.org/2000/svg"><path d="M24 12.5v.1c0 .9-.7 1.6-1.5 1.8-.8.2-1.6.8-1.9 1.6-.4.8-.4 1.7 0 2.5s.2 1.8-.4 2.4H20c-.7.6-1.6.7-2.4.2-.7-.4-1.6-.5-2.4-.2-.8.3-1.5 1-1.7 1.8-.3.8-1.1 1.4-2 1.4h-.1c-.9 0-1.6-.7-1.8-1.5-.2-.8-.8-1.6-1.6-1.9-.8-.4-1.7-.4-2.5 0s-1.7.2-2.3-.4l-.1-.3c-.6-.7-.7-1.6-.2-2.4.4-.7.5-1.6.2-2.4-.3-.8-1-1.5-1.8-1.7-.8-.3-1.4-1.1-1.4-2v-.1c0-.9.7-1.6 1.5-1.8 1-.2 1.7-.8 2.1-1.6.4-.8.4-1.7 0-2.5-.5-.8-.3-1.7.4-2.3l.1-.1c.7-.6 1.6-.7 2.4-.2.7.4 1.6.5 2.4.2.8-.3 1.5-1 1.7-1.8.3-.8 1.1-1.4 2-1.4h.1c.9 0 1.6.7 1.8 1.5.2.9.8 1.6 1.6 1.9.8.4 1.7.4 2.5 0s1.7-.2 2.4.4V4c.6.7.7 1.6.2 2.4-.4.7-.5 1.6-.2 2.4.3.8.9 1.4 1.8 1.7.8.3 1.3 1.1 1.3 2zM9.1 9.1c0 1.6 1.3 2.9 2.9 2.9 1.6 0 2.9-1.3 2.9-2.9 0-1.6-1.3-2.9-2.9-2.9-1.6 0-2.9 1.3-2.9 2.9zm7.7 8.2v-.7c0-1.9-1.5-3.5-3.5-3.6h-2.4-.1c-1.9.1-3.5 1.7-3.5 3.6v.7c0 .3.2.5.5.5h8.7c.1 0 .3-.2.3-.5z"/></symbol><symbol viewBox="0 0 17 17" id="icon-edit" xmlns="http://www.w3.org/2000/svg"><path d="M10.1 3.3L1.4 12 1 15.5c-.1.5.3.9.8.8l3.6-.3 8.7-8.7-4-4zm6.4-.6L14.6.8c-.6-.6-1.5-.6-2.1 0l-1.8 1.7 4 4 1.8-1.8c.6-.5.6-1.5 0-2z"/></symbol><symbol viewBox="0 0 18 12" id="icon-eye" xmlns="http://www.w3.org/2000/svg"><path d="M17.9 5.6C16.2 2.2 12.8 0 9 0 5.2 0 1.8 2.2.1 5.6c-.1.1-.1.3-.1.4 0 .1 0 .3.1.4C1.8 9.8 5.2 12 9 12c3.8 0 7.2-2.2 8.9-5.5 0-.2.1-.3.1-.5 0-.1-.1-.3-.1-.4zM9 10.5c-2.5 0-4.5-2-4.5-4.5s2-4.5 4.5-4.5 4.5 2 4.5 4.5-2 4.5-4.5 4.5zM9 3c-.2 0-.6.1-.8.1.1.2.3.7.3.9 0 .8-.7 1.5-1.5 1.5-.3 0-.7-.1-.9-.3-.1.2-.1.6-.1.8 0 1.7 1.3 3 3 3s3-1.3 3-3-1.3-3-3-3z"/></symbol><symbol viewBox="0 0 10 16" id="icon-facebook" xmlns="http://www.w3.org/2000/svg"><path d="M3.3 16h2.9V8.8h2.3L8.9 6H6.2V4c0-.4.1-.8.2-1 .2-.2.6-.4 1.2-.4h1.5V.1C8.6.1 7.8 0 6.9 0c-1.1 0-2 .3-2.7 1-.7.7-1 1.6-1 2.8V6H.9v2.8h2.4V16z"/></symbol><symbol viewBox="0 0 24 24" id="icon-facebook-circle" xmlns="http://www.w3.org/2000/svg"><path d="M12 0C5.4 0 0 5.4 0 12s5.4 12 12 12 12-5.4 12-12S18.6 0 12 0zm3.3 7.3h-1.7c-.3 0-.7.1-.7.8v1.6h2.4l-.3 2.8h-2.1v7.8H9.6v-7.8H8.1V9.7h1.5V7.9c0-1.3.6-3.3 3.3-3.3h2.4v2.7z"/></symbol><symbol viewBox="0 0 16 14" id="icon-faq" xmlns="http://www.w3.org/2000/svg"><path d="M15.8 10.8L9.3.7c-.6-.9-2-.9-2.6 0L.2 10.8c-.7 1 .1 2.3 1.3 2.3h12.9c1.3 0 2-1.3 1.4-2.3zm-7.2-.5c0 .3-.2.5-.5.5h-.4c-.3 0-.5-.2-.5-.5v-.4c0-.3.2-.5.5-.5h.4c.3 0 .5.2.5.5v.4zm0-1.7c-.1.4-.2.4-.5.4h-.5c-.3 0-.5-.1-.5-.5 0-.7 1.1-1.1 1.1-1.5 0-.2-.2-.3-.4-.3-.1 0-.2 0-.3.1-.1.1-.4.1-.6-.1l-.2-.4c-.2-.2-.2-.4.1-.6.2-.2.7-.4 1.3-.4.8 0 1.8.5 1.8 1.5-.1 1.1-1.1 1.4-1.3 1.8z"/></symbol><symbol viewBox="0 0 7 4" id="icon-fill-row" xmlns="http://www.w3.org/2000/svg"><path d="M.5 0C.1 0-.2.5.1.8l3 3c.2.2.5.2.7 0l3-3c.3-.3.1-.8-.3-.8h-6z"/></symbol><symbol viewBox="0 0 16.7 16.1" id="icon-fill-star" xmlns="http://www.w3.org/2000/svg"><path d="M7.5.5l-2 4.2-4.6.7C.1 5.5-.3 6.5.3 7.1l3.3 3.2-.8 4.5c-.1.8.8 1.4 1.5 1.1l4.1-2.2 4.1 2.2c.7.4 1.6-.2 1.5-1.1l-.8-4.5 3.2-3.2c.6-.6.3-1.6-.5-1.7l-4.6-.7-2-4.2c-.4-.7-1.4-.7-1.8 0z"/></symbol><symbol viewBox="0 0 24 24" id="icon-gear" xmlns="http://www.w3.org/2000/svg"><path d="M23.3 9.7l-2.7-.5c-.2-.5-.4-.9-.6-1.4l1.6-2.2c.2-.3.2-.8-.1-1.1l-2.1-2.1c-.3-.3-.7-.3-1.1-.1l-2.2 1.6c-.4-.2-.9-.4-1.4-.6L14.3.7c-.1-.4-.4-.7-.8-.7h-3c-.4 0-.7.3-.8.7l-.5 2.7c-.5.1-.9.3-1.4.5L5.6 2.4c-.3-.3-.8-.2-1 0L2.4 4.6c-.3.3-.3.7-.1 1.1l1.6 2.2c-.2.4-.4.9-.6 1.3l-2.6.5c-.4 0-.7.4-.7.8v3c0 .4.3.7.7.8l2.7.5c.2.5.4.9.6 1.4l-1.6 2.2c-.2.3-.2.8.1 1.1l2.1 2.1c.3.3.7.3 1.1.1l2.2-1.6c.4.2.9.4 1.4.6l.5 2.7c.1.4.4.7.8.7h3c.4 0 .7-.3.8-.7l.4-2.7c.5-.2.9-.4 1.4-.6l2.2 1.6c.3.2.8.2 1.1-.1l2.1-2.1c.3-.3.3-.7.1-1.1l-1.6-2.2c.2-.4.4-.9.6-1.4l2.7-.5c.4-.1.7-.4.7-.8v-3c-.1-.4-.4-.8-.8-.8zM12 16.3c-2.4 0-4.3-1.9-4.3-4.3S9.6 7.7 12 7.7s4.3 1.9 4.3 4.3-1.9 4.3-4.3 4.3z"/></symbol><symbol viewBox="0 0 24 24" id="icon-linkedin-circle" xmlns="http://www.w3.org/2000/svg"><path d="M24 12c0 6.6-5.4 12-12 12S0 18.6 0 12 5.4 0 12 0s12 5.4 12 12zM8.5 9.3H5.6v8.8h2.9V9.3zM7.1 8.1c1 0 1.7-.7 1.7-1.5 0-.9-.6-1.5-1.6-1.5s-1.8.7-1.8 1.5c0 .9.7 1.5 1.7 1.5zm12 5c0-2.7-1.4-4-3.4-4-1.6 0-2.2.9-2.6 1.5V9.3h-2.9v8.8h2.9v-4.9c0-.3 0-.5.1-.7.2-.5.7-1.1 1.5-1.1 1.1 0 1.5.8 1.5 2v4.7h2.9v-5z"/></symbol><symbol viewBox="0 0 21 19" id="icon-list" xmlns="http://www.w3.org/2000/svg"><path d="M3.4 15.2l.7-.8c.1-.1.2-.4.2-.5v-.1c0-.3-.2-.5-.4-.5H1.6c-.2 0-.3.2-.3.3v.6c0 .2.1.3.3.3h.9c-.1.2-.3.4-.4.5l-.2.3c-.2.2-.2.4-.1.6v.1c.1.2.2.3.5.3h.2c.4 0 .6.1.6.4 0 .2-.2.3-.5.3-.2 0-.5-.1-.6-.1-.2-.2-.5-.2-.6.1l-.2.4c-.2.2-.1.5.1.6.3.2.8.4 1.4.4 1.3 0 1.9-.9 1.9-1.7-.1-.7-.4-1.3-1.2-1.5zm17-.4H7.9c-.4 0-.6.3-.6.6v.6c0 .4.3.6.6.6h12.5c.3 0 .6-.3.6-.6v-.6c0-.3-.3-.6-.6-.6zm0-12.5H7.9c-.4 0-.6.3-.6.6v.6c0 .4.3.6.6.6h12.5c.3 0 .6-.3.6-.6v-.6c0-.3-.3-.6-.6-.6zm0 6.3H7.9c-.4 0-.6.3-.6.6v.6c0 .4.3.6.6.6h12.5c.3 0 .6-.3.6-.6v-.6c0-.3-.3-.6-.6-.6zM1.6 5.8h2.5c.2 0 .3-.1.3-.3v-.7c0-.2-.2-.3-.3-.3h-.6V1.1c0-.2-.2-.3-.3-.3h-1c-.1 0-.2 0-.3.1l-.3.7v.1c0 .2.1.3.3.3h.3v2.5h-.6c-.2 0-.3.2-.3.3v.6c0 .2.1.4.3.4zM1.5 12h2.7c.2 0 .3-.1.3-.3v-.6c0-.2-.2-.3-.3-.3H2.6c.1-.4 1.9-.7 1.9-2.2 0-1.1-1-1.6-1.7-1.6-.9 0-1.4.4-1.6.7-.2.3-.2.5.1.7l.4.2c.2.2.4.1.6-.1.1-.1.2-.2.4-.2.1.1.3.1.3.4 0 .5-2 .9-2 2.7v.2c0 .2.2.4.5.4z"/></symbol><symbol viewBox="0 0 24 22" id="icon-list-star" xmlns="http://www.w3.org/2000/svg"><path d="M6.5 2.1L4.8 2c-.1 0-.2-.1-.3-.2L3.8.2c-.2-.3-.6-.3-.8 0l-.6 1.6c0 .1-.2.2-.3.2l-1.7.1c-.4.1-.5.5-.3.7l1.3 1.1c.2.1.2.3.2.4l-.4 1.6c-.1.4.3.7.6.5l1.5-.9c.1-.1.3-.1.4 0l1.5.9c.3.2.7-.1.6-.4l-.4-1.7c0-.1 0-.3.1-.4l1.3-1.1c.2-.1.2-.4 0-.5 0-.1-.1-.2-.3-.2zM10 5.1h12.7c.7 0 1.3-.6 1.3-1.3s-.6-1.3-1.3-1.3H10c-.7 0-1.3.6-1.3 1.3s.6 1.3 1.3 1.3zM6.5 9.9l-1.7-.1c-.2 0-.3-.1-.4-.2L3.8 8c-.1-.3-.6-.3-.7 0l-.7 1.5c0 .2-.2.3-.3.3l-1.7.1c-.4 0-.5.5-.2.7l1.3 1.1c.1.1.2.2.1.4l-.4 1.6c-.1.3.3.6.6.4l1.5-.9c.1-.1.3-.1.4 0l1.5.9c.3.2.7-.1.6-.4l-.4-1.6c0-.1 0-.3.1-.4l1.3-1.1c.3-.2.1-.7-.3-.7zM22.7 10.3H10c-.7 0-1.3.6-1.3 1.3s.6 1.3 1.3 1.3h12.7c.7 0 1.3-.6 1.3-1.3s-.6-1.3-1.3-1.3zM6.5 17.7l-1.7-.1c-.2 0-.3-.1-.4-.2l-.7-1.5c-.2-.3-.6-.3-.8 0l-.7 1.5c-.1.1-.2.2-.4.2l-1.7.1c-.4 0-.5.5-.2.7l1.3 1.1c.1.1.2.2.1.4l-.4 1.6c-.1.3.3.6.6.4L3 21c.1-.1.3-.1.4 0l1.5.9c.3.2.7-.1.6-.4l-.4-1.6c0-.1 0-.3.1-.4l1.3-1.1c.5-.1.5-.4.3-.6 0-.1-.1-.1-.3-.1zM22.7 18.1H10c-.7 0-1.3.6-1.3 1.3s.6 1.3 1.3 1.3h12.7c.7 0 1.3-.6 1.3-1.3 0-.7-.6-1.3-1.3-1.3z"/></symbol><symbol viewBox="0 0 193 23" id="icon-logo" xmlns="http://www.w3.org/2000/svg"><path d="M29 18.3H34.1c6.4 0 9.6-3.8 9.6-8.3 0-4.3-2.7-8-9.4-8-1.1 0-4.1.1-5 .1H29v16.2zm5.3-12.8c3.1 0 5.4 1.6 5.4 4.6 0 3.1-2.1 4.8-5.4 4.8h-1.4V5.6c.4-.1 1-.1 1.4-.1zM54.3 15c-.6.3-1.6.7-2.8.7-1.2 0-2.2-.4-2.5-1.4h7.2c.1-.5.2-.9.2-1.7 0-3-2.4-4.9-5.2-4.9-3.6 0-5.9 2.5-5.9 5.5 0 3.3 2.3 5.5 5.9 5.5 1.5 0 3.1-.4 4.2-1.2L54.3 15zM51 10.5c1.2 0 1.8.7 1.8 1.4h-3.9c.3-.9.9-1.4 2.1-1.4zM58.1 14.4c0 2.7.9 4.3 3.4 4.3 1.6 0 2.9-.6 3.6-1.2L64 14.8c-.4.3-.8.6-1.6.6-.5 0-.7-.5-.7-1.2v-3.1h3V7.9h-3V5h-3.6v9.4zM75.5 15c-.6.3-1.6.7-2.8.7-1.2 0-2.2-.4-2.5-1.4h7.2c.1-.5.2-.9.2-1.7 0-3-2.4-4.9-5.2-4.9-3.6 0-5.9 2.5-5.9 5.5 0 3.3 2.3 5.5 5.9 5.5 1.5 0 3.1-.4 4.2-1.2L75.5 15zm-3.4-4.5c1.2 0 1.8.7 1.8 1.4H70c.3-.9.9-1.4 2.1-1.4zM87.6 14.2c-.6.7-1.4 1.2-2.4 1.2-1.1 0-2.4-.8-2.4-2.3 0-1.5 1.2-2.3 2.3-2.3.8 0 1.5.2 2.3 1L89 9.1c-1-1-2.6-1.5-4.4-1.5-3.4 0-5.7 2.5-5.7 5.5 0 3.3 2.3 5.5 5.9 5.5 1.9 0 3.5-.7 4.4-1.9l-1.6-2.5zM91.2 14.4c0 2.7.9 4.3 3.4 4.3 1.6 0 2.9-.6 3.6-1.2l-1.1-2.7c-.4.3-.8.6-1.6.6-.5 0-.7-.5-.7-1.2v-3.1h3V7.9h-3V5h-3.6v9.4zM100.8 18.3h3.6V7.9h-3.6v10.4zm-.4-14c0 1.4 1 2.1 2.2 2.1 1 0 2-.7 2-2.1 0-1.2-1-2-2-2-1.2 0-2.2.7-2.2 2zM118.1 7.9h-3.8l-1.3 3.3c-.3.7-.6 1.7-.7 2.4-.1-.8-.5-1.8-.7-2.4l-1.4-3.3H106l4.9 10.5h2.7l4.5-10.5zM127.5 15c-.6.3-1.6.7-2.8.7-1.2 0-2.2-.4-2.5-1.4h7.2c.1-.5.2-.9.2-1.7 0-3-2.4-4.9-5.2-4.9-3.6 0-5.9 2.5-5.9 5.5 0 3.3 2.3 5.5 5.9 5.5 1.5 0 3.1-.4 4.2-1.2l-1.1-2.5zm-3.3-4.5c1.2 0 1.8.7 1.8 1.4h-4c.4-.9 1-1.4 2.2-1.4zM137 15.3c0 .3-.3.5-.8.5-1.1 0-2.8-.7-3.5-1.3l-1.7 2.3c.5.7 2.6 1.9 4.9 1.9 2.9 0 4.7-1.4 4.7-3.5 0-3.7-5.7-3-5.7-4.1 0-.2.3-.5.8-.5 1.2 0 2.4.6 3 1L140 9c-.7-.6-2.1-1.4-4.5-1.4-2.3 0-4.2 1.2-4.2 3.4-.1 3.8 5.7 3.1 5.7 4.3zM143.2 23h1.9v-5.1c.8.5 1.9.7 3 .7 3.4 0 5.6-2.4 5.6-5.6 0-3.1-1.9-5.3-5-5.3-1.5 0-2.9.6-3.7 1.5V7.9h-1.9V23zm5.1-13.6c2.2 0 3.5 1.5 3.5 3.6 0 2.2-1.4 3.8-3.7 3.8-1 0-1.9-.2-2.9-.8v-5.2c.6-.8 1.8-1.4 3.1-1.4zM156.8 18.3h1.9v-7.4c.4-.8 1-1.5 2.3-1.5.6 0 .9.1 1.5.4l.7-1.7c-.4-.3-.8-.4-1.7-.4-1.4 0-2.2.6-2.7 1.4V7.9h-1.9v10.4zM165.8 18.3h1.9V7.9h-1.9v10.4zM165.5 4c0 .8.6 1.2 1.2 1.2s1.2-.4 1.2-1.2c0-.7-.6-1.1-1.2-1.1-.6-.1-1.2.4-1.2 1.1zM181.5 7.9h-2l-2.5 5.6c-.3.7-.6 1.6-.9 2.4-.3-.8-.6-1.7-.9-2.3l-2.6-5.7h-2.3l5 10.6h1.4l4.8-10.6zM191.7 15.7c-.7.6-1.9 1.1-3.3 1.1-2.1 0-3.6-1.2-3.8-3.1h8.3c.1-.3.1-.7.1-1.3 0-2.9-2.2-4.8-5-4.8-3.6 0-5.6 2.4-5.6 5.5 0 3.3 2.3 5.5 5.8 5.5 1.4 0 3-.4 4.1-1.4l-.6-1.5zm-3.8-6.3c1.9 0 3 1.1 3.1 2.8h-6.6c.3-1.6 1.5-2.8 3.5-2.8zM14.5.7c0-.1-.1-.1-.1-.2-.6-.7-1.6-.7-2.2-.1-1 .9-2.4.9-3.4 0L8.7.3C8-.2 7-.1 6.5.7 5.3 2.5 4.4 4.5 4 6.6c3 1.3 6.3 1.7 9.4 1.1l-.7-3.1 2.9.1.5 2.3c.3-.1.6-.2.9-.4-.4-2.1-1.3-4.1-2.5-5.9zM18.7 11l-1.2.3c.6 1.2.2 2.6-1 3.3-.6 2.8-2.7 5.1-5.5 6.1-.3.1-.7.1-1 0-2.8-1-4.9-3.3-5.5-6.1-1.2-.7-1.6-2.1-1-3.3L2.3 11c-.7 1.5-.2 3.3 1.1 4.4.8 3 3.1 5.4 6.1 6.5.6.2 1.3.2 1.9 0 3-1.1 5.3-3.5 6.1-6.5 1.4-1.1 1.9-2.9 1.2-4.4z"/><path d="M20.6 8.6L17 8C12.8 9.9 8.2 9.9 4 8l-3.6.6c-.2 0-.3.1-.4.3-.1.3 0 .6.2.7 6.5 3.2 14 3.2 20.5 0 .2-.1.3-.2.3-.4 0-.3-.1-.6-.4-.6z"/><path d="M15.7 12c.6 1.3.3 2.9-.8 3.6-1 .7-2.3.4-3-.6l-.9-1.2-.1-.1c-.3-.3-.7-.2-1 .1L9.1 15c-.8 1.2-2.3 1.3-3.3.4-.8-.8-1.1-2.3-.5-3.4 3.4.8 7 .8 10.4 0z"/></symbol><symbol viewBox="0 0 16 14" id="icon-menu" xmlns="http://www.w3.org/2000/svg"><path d="M2.5 10.2h-2c-.3 0-.5.2-.5.5v2c0 .3.2.5.5.5h2c.2 0 .5-.2.5-.5v-2c0-.3-.2-.5-.5-.5zm0-10h-2C.2.2 0 .4 0 .7v2c0 .3.2.5.5.5h2c.3 0 .5-.3.5-.5v-2c0-.3-.2-.5-.5-.5zm0 5h-2c-.3 0-.5.2-.5.5v2c0 .3.2.5.5.5h2c.3 0 .5-.3.5-.5v-2c0-.3-.2-.5-.5-.5zm13 5.5h-10c-.3 0-.5.2-.5.5v1c0 .3.2.5.5.5h10c.2 0 .5-.2.5-.5v-1c0-.3-.2-.5-.5-.5zm0-10h-10c-.3 0-.5.2-.5.5v1c0 .3.2.5.5.5h10c.2 0 .5-.2.5-.5v-1c0-.3-.2-.5-.5-.5zm0 5h-10c-.3 0-.5.2-.5.5v1c0 .3.2.5.5.5h10c.2 0 .5-.2.5-.5v-1c0-.3-.2-.5-.5-.5z"/></symbol><symbol viewBox="0 0 24 24" id="icon-p-circle" xmlns="http://www.w3.org/2000/svg"><path d="M12 0C5.4 0 0 5.4 0 12s5.4 12 12 12 12-5.4 12-12S18.6 0 12 0zm1.4 16c-1.1 0-2.2-.6-2.5-1.3l-.7 2.8c-.4 1.6-1.8 3.2-1.9 3.4-.1.1-.2.1-.3-.1 0-.2-.4-2.2 0-3.9.2-.8 1.3-5.6 1.3-5.6S9 10.6 9 9.7C9 8.2 9.9 7 11 7c.9 0 1.4.7 1.4 1.5 0 .9-.6 2.3-.9 3.6-.3 1.1.5 2 1.6 2 1.9 0 3.3-2.5 3.3-5.5 0-2.3-1.5-3.9-4.3-3.9-3.1.1-5 2.4-5 5 0 .9.3 1.5.7 2 .1.3.2.4.1.6 0 .2-.2.6-.2.8-.1.3-.3.4-.5.3-1.4-.6-2.1-2.2-2.1-3.9 0-2.9 2.5-6.4 7.3-6.4 3.9 0 6.5 2.8 6.5 5.9 0 4-2.2 7-5.5 7z"/></symbol><symbol viewBox="0 0 24 24" id="icon-price" xmlns="http://www.w3.org/2000/svg"><path d="M24 12c0 6.6-5.4 12-12 12S0 18.6 0 12 5.4 0 12 0s12 5.4 12 12zm-7.9 2.1c0-1.9-1.2-2.7-3.4-3.3-1.9-.5-2.3-.7-2.3-1.4 0-.5.5-.9 1.4-.9 1.2-.1 2.2.6 2.2.6l1.2-1.9s-.8-.7-2.1-.8V5.1h-2.4v1.3C9 6.8 7.9 8 7.9 9.6c0 2.2 1.4 2.8 3.6 3.3 1.8.5 2.2.8 2.2 1.4 0 .6-.6 1-1.6 1-1.5 0-2.8-1-2.8-1L8 16.2s1.2.9 2.6 1.1v1.5H13v-1.4c1.9-.3 3.1-1.4 3.1-3.3z"/></symbol><symbol viewBox="0 0 18 17" id="icon-rate" xmlns="http://www.w3.org/2000/svg"><path d="M16.5 6.2l-4.6-.7-2-4.1C9.7 1 9.3.8 9 .8c-.4 0-.7.2-.9.6L6 5.6l-4.5.6C.7 6.3.3 7.3.9 7.9l3.3 3.2-.8 4.5c-.1.7.4 1.2 1 1.2.2 0 .3 0 .5-.1L9 14.6l4.1 2.2c.2.1.3.1.5.1.6 0 1.1-.5 1-1.2l-.8-4.5L17.1 8c.6-.7.2-1.7-.6-1.8zm-3.8 3.9l-.6.6.1.8.6 3.5-3.2-1.7-.6-.4V3l1.6 3.2.3.7.8.1 3.6.5-2.6 2.6z"/></symbol><symbol viewBox="0 0 17 15" id="icon-reply" xmlns="http://www.w3.org/2000/svg"><path d="M1.2 4.9c-.3.3-.3.8 0 1.2l5.5 4.8c.5.3 1.3 0 1.3-.7V7.5c4.8.1 6.9 1.2 5.5 5.8-.2.5.5.9.9.6 1.4-1 2.6-2.9 2.6-4.8 0-4.8-4-5.8-9-5.8V.8c0-.7-.8-1-1.2-.6L1.2 4.9z"/></symbol><symbol viewBox="0 0 22 24" id="icon-security" xmlns="http://www.w3.org/2000/svg"><path d="M11 0c4.9 1 3.9 2.5 10.7 2 .5 11.3 2.2 18.2-10.5 21.8l-.2.2-.1-.1C-1.8 20.2-.1 13.3.3 2c6.8.5 5.8-1 10.7-2zM1.8 3.4c-.4 9.8-1.9 15.7 9.1 18.8l.1.1.1-.1c11-3.2 9.5-9.1 9.1-18.8-5.8.5-5-.9-9.2-1.7-4.2.8-3.4 2.1-9.2 1.7z"/><path d="M3.1 4.6c-.4 8.4-1.6 13.5 7.8 16.2l.1.1.1-.1c9.4-2.7 8.2-7.8 7.8-16.2-5 .4-4.3-.8-7.9-1.5-3.6.7-2.9 1.9-7.9 1.5z"/></symbol><symbol viewBox="0 0 21 24" id="icon-setup" xmlns="http://www.w3.org/2000/svg"><path d="M20.8 8.8h-1.9c-.2-1.1-.7-2.2-1.3-3.1 0-.1.1-.1.2-.2l1.1-1.1c-.7-.9-1.5-1.8-2.4-2.4l-1.2 1.2c-.1.1-.1.1-.2.1-.9-.6-2-1.1-3.1-1.3v-.1V.1c-.4-.1-1-.1-1.5-.1-.6 0-1.2 0-1.7.1V1.9c-1.1.3-2.2.8-3.1 1.4-.1 0-.1-.1-.2-.1-.3-.5-.7-.8-1.1-1.2-1 .6-1.8 1.4-2.5 2.4L3 5.5l.2.2c-.5.9-1 2-1.2 3.1H.1C0 9.4 0 10 0 10.5c0 .6 0 1.1.1 1.7H2c.2 1.1.7 2.2 1.3 3.1 0 0 0 .1-.1.1-.4.3-.7.7-1.1 1.1l-.1.2c.7.9 1.5 1.7 2.4 2.4l1.2-1.2.1-.1c.6.4 1.3.7 2 1V15c-.1-.1-.2-.1-.3-.2-.5-.3-.9-.7-1.2-1.2-.5-.7-.8-1.4-.9-2.3 0-.3-.1-.6-.1-.9s0-.6.1-.9c.1-.8.4-1.6.9-2.2.3-.5.7-.9 1.2-1.2.7-.5 1.4-.8 2.2-.9.3 0 .6-.1.8-.1.3 0 .6 0 .8.1.8.1 1.6.5 2.2.9.5.3.9.8 1.2 1.2.5.6.8 1.4.9 2.2 0 .3.1.6.1.9 0 .3 0 .6-.1.9-.1.8-.4 1.6-.9 2.3-.3.5-.7.9-1.2 1.2-.1.1-.2.1-.3.2v3.7c.7-.2 1.4-.6 2-1 0 0 .1 0 .1.1l1.2 1.2c.9-.7 1.7-1.5 2.4-2.4l-.1-.1-1.1-1.1-.1-.1c.6-.9 1.1-2 1.3-3.1h1.9c.1-.6.1-1.1.1-1.7.1-.6.1-1.1 0-1.7z"/><path d="M14.4 10.6c0-1.3-.6-2.5-1.7-3.2-.1-.1-.2-.1-.2-.2v2.9c0 .5-.4.9-.9.9H9.4c-.5 0-.9-.4-.9-.9V7.2c-.1.1-.2.1-.3.2-1 .7-1.6 1.9-1.7 3.2v.1c0 1.2.6 2.4 1.7 3.1.2.1.3.2.5.3v8.1c0 .9.7 1.7 1.6 1.8h.1c1 0 1.7-.8 1.7-1.7v-8.2c.2-.1.3-.2.5-.3 1.1-.7 1.7-1.9 1.8-3.2z"/></symbol><symbol viewBox="0 0 14 15" id="icon-share" xmlns="http://www.w3.org/2000/svg"><path d="M4 12c0-1.1-.9-2-2-2s-2 .9-2 2 .9 2 2 2 2-.9 2-2zm5.5 1.5c-.2-4.8-4.1-8.7-9-9-.3 0-.5.3-.5.5v1.5c0 .3.2.5.4.5 3.5.2 6.3 3 6.5 6.5.1.3.3.5.6.5H9c.2 0 .5-.2.5-.5zm4.5 0C13.7 6.2 7.8.3.5 0 .2 0 0 .2 0 .5V2c0 .2.2.5.5.5 6 .2 10.8 5 11 11 0 .3.2.5.5.5h1.5c.3 0 .5-.2.5-.5z"/></symbol><symbol viewBox="0 0 14 16" id="icon-share-comment" xmlns="http://www.w3.org/2000/svg"><path d="M11 10c-.7 0-1.4.2-1.9.7l-3.2-2c0-.2.1-.5.1-.7 0-.2-.1-.5-.1-.6l3.2-2c.5.4 1.2.6 1.9.6 1.7 0 3-1.3 3-3s-1.3-3-3-3-3 1.3-3 3c0 .2 0 .5.1.7l-3.2 2C4.3 5.2 3.7 5 3 5 1.3 5 0 6.3 0 8s1.3 3 3 3c.7 0 1.3-.2 1.8-.6l3.2 2v.6c0 1.7 1.3 3 3 3s3-1.3 3-3-1.3-3-3-3z"/></symbol><symbol viewBox="0 0 16.6 16.1" id="icon-star" xmlns="http://www.w3.org/2000/svg"><path d="M15.8 5.4l-4.5-.7L9.2.5c-.4-.7-1.4-.7-1.8 0l-2 4.2-4.6.7C0 5.5-.3 6.5.3 7.1l3.3 3.2-.8 4.5c-.1.8.8 1.4 1.5 1.1l4-2.2 4.1 2.2c.7.4 1.6-.2 1.5-1.1l-.8-4.5 3.2-3.2c.6-.6.3-1.6-.5-1.7zm-4.4 4.4l.8 4.3-3.9-2-3.9 2 .8-4.3L2 6.7l4.3-.6 2-3.9 2 3.9 4.3.6-3.2 3.1z"/></symbol><symbol viewBox="0 0 17 17" id="icon-tools" xmlns="http://www.w3.org/2000/svg"><path d="M16.8 3.4c-.1-.3-.4-.4-.6-.2l-2.3 2.3-2.1-.3-.3-2.1L13.8.8c.2-.2.1-.6-.2-.6-1.5-.4-3.1 0-4.2 1.2-1.2 1.2-1.6 3-1.1 4.6l-6.7 6.7c-.8.8-.8 2.1 0 2.8s2.1.8 2.8 0l6.7-6.7c1.6.5 3.3.2 4.6-1.1 1.1-1.2 1.5-2.8 1.1-4.3zM3 14.8c-.4 0-.8-.3-.8-.8 0-.4.3-.8.8-.8.4 0 .8.3.8.8 0 .4-.4.8-.8.8z"/></symbol><symbol viewBox="0 0 16 14" id="icon-twitter" xmlns="http://www.w3.org/2000/svg"><path d="M14.3 3.8C15 3.3 15.5 2.7 16 2c-.6.3-1.2.5-1.9.5.7-.4 1.2-1 1.4-1.8-.7.4-1.3.7-2.1.8-.3-.3-.7-.6-1.1-.8S11.5.4 11 .4c-.6 0-1.1.2-1.6.4-.5.4-.9.9-1.2 1.4-.3.5-.4 1-.4 1.6 0 .2 0 .5.1.8-1.3-.1-2.6-.4-3.8-1-1.2-.6-2.2-1.4-3-2.4-.3.4-.4 1-.4 1.6s.1 1.1.4 1.6c.2.5.6.9 1.1 1.2-.5 0-1-.2-1.5-.4v.1c0 .8.2 1.5.8 2.1.5.6 1.1 1 1.9 1.2-.4-.2-.7-.2-1-.2h-.6c.2.7.6 1.2 1.1 1.6.6.4 1.2.6 1.9.6-1.2.9-2.6 1.4-4.1 1.4h-.8c1.5 1 3.2 1.5 5 1.5 1.9 0 3.6-.5 5.1-1.5 1.3-.9 2.4-2 3.2-3.5.7-1.4 1.1-2.8 1.1-4.3.1-.2 0-.4 0-.4z"/></symbol><symbol viewBox="0 0 24 24" id="icon-twitter-circle" xmlns="http://www.w3.org/2000/svg"><path d="M12 0C5.4 0 0 5.4 0 12s5.4 12 12 12 12-5.4 12-12S18.6 0 12 0zm5.5 9.4v.4c0 3.6-2.8 7.8-7.8 7.8-1.6 0-3-.5-4.2-1.2h.7c1.3 0 2.5-.4 3.4-1.2-1.2 0-2.2-.8-2.6-1.9h.5c.3 0 .5 0 .7-.1C6.9 13 6 11.8 6 10.5c.4.2.8.3 1.2.3C6.5 10.3 6 9.5 6 8.5c0-.5.1-1 .4-1.4C7.7 8.8 9.8 9.9 12 10v-.6c0-1.5 1.2-2.8 2.8-2.8.8 0 1.5.3 2 .9.6-.1 1.2-.4 1.7-.7-.2.6-.6 1.2-1.2 1.5.6-.1 1.1-.2 1.6-.4-.4.6-.9 1.1-1.4 1.5z"/></symbol><symbol viewBox="0 0 14 16" id="icon-user" xmlns="http://www.w3.org/2000/svg"><path d="M7 8c2.2 0 4-1.8 4-4S9.2 0 7 0 3 1.8 3 4s1.8 4 4 4zm2.8 1h-.6c-.6.3-1.4.5-2.2.5S5.4 9.3 4.7 9h-.5C1.9 9 0 10.9 0 13.2v1.3c0 .8.7 1.5 1.5 1.5h11c.8 0 1.5-.7 1.5-1.5v-1.3C14 10.9 12.1 9 9.8 9z"/></symbol><symbol viewBox="0 0 20 19" id="icon-windows" xmlns="http://www.w3.org/2000/svg"><path d="M8.3 10.1v7.3l-7.6-1v-6.2h7.6zm0-8.3v7.4H.7V2.8l7.6-1zm11 8.3v8.8L9.2 17.5v-7.4h10.1zm0-9.8v8.9H9.2V1.7L19.3.3z"/></symbol><symbol viewBox="0 0 16 17" id="icon-write" xmlns="http://www.w3.org/2000/svg"><path d="M16 .5c-.5.5-.9 1.3-1 1.5l-.6 1.2c0 .1-.1.1-.1.2-.3.6-2.5 1-2.5 1l2 .3c-.2.5-.5.9-.7 1.3H13c-1 1.5-2 2.3-2 2.4-.9.7-1.8 1.3-2.9 1.8l-2.4.9c-.1 0-.1.1-.1.1l-.1.1-1.8 2.2c-.4.4-.3-.2-.3-.2.6-2.1 1.6-4 2.9-5.8 1.1-1.6 2.3-3 3.8-4.2.9-.7 1.9-1.4 2.9-1.8l.1-.1c-.4.1-.7.2-1.1.4-2 .8-3.6 2.1-5 3.7-1.2 1.3-2.1 2.7-2.7 4.3-.3.2-.4.1-.4 0-.1-1-.2-2 .1-3 .8-3 2.7-5 5.4-6 0 0 2-.8 4.9-.8h.5c.4 0 .8.1 1.1.1.1 0 .2.2.1.4zm-3.7 14.6v-6c-.2.2-.4.4-.5.4l-1.2.9v3.9H1.7V5.4h1.2c.2-.6.5-1.2.8-1.7H.9c-.5 0-.9.4-.9.9v10.6c0 .4.4.8.9.8h10.6c.4 0 .8-.4.8-.9z"/></symbol><symbol viewBox="0 0 17 16" id="icon-write-pen" xmlns="http://www.w3.org/2000/svg"><path d="M16.4 1.8L15.2.6c-.4-.4-.9-.6-1.4-.6s-1 .2-1.4.6l-2.3 2.3L9 4l-7.6 7.6-.4 3.6c-.1.4.3.8.7.8h.1l3.6-.4L13 8l1.1-1.1 2.3-2.3c.8-.8.8-2 0-2.8zM4.7 14.2l-2.1.2.2-2.1L10 5.1l1-1L12.9 6l-1 1-7.2 7.2zM15.3 3.5L14 4.9 12.1 3l1.4-1.4c.1-.1.3-.2.3-.2s.2 0 .3.2l1.2 1.2c.2.2.2.5 0 .7z"/></symbol></svg>